<svg width="473" height="272" viewBox="0 0 473 272" fill="none" xmlns="http://www.w3.org/2000/svg">
<g clip-path="url(#clip0_2778_69)">
<path d="M-126.733 148.455C-142.787 124.475 -135.265 91.9207 -110.317 77.415L-6.09059 16.8116C15.3052 4.37083 42.583 9.45526 58.06 28.7688L197.651 202.963C204.76 211.834 208.633 222.862 208.633 234.23L208.633 361.629C208.633 397.965 171.101 422.167 138.003 407.174L19.62 353.55C11.1314 349.705 3.88622 343.564 -1.298 335.82L-126.733 148.455Z" fill="#1A8663"/>
<path d="M598.608 148.455C614.662 124.475 607.14 91.9207 582.192 77.415L477.966 16.8116C456.57 4.37083 429.292 9.45526 413.815 28.7688L274.224 202.963C267.115 211.834 263.242 222.862 263.242 234.23L263.242 361.629C263.242 397.965 300.774 422.167 333.872 407.174L452.255 353.55C460.744 349.705 467.989 343.564 473.173 335.82L598.608 148.455Z" fill="#1A8663"/>
<circle cx="236" cy="219" r="38" fill="#006746"/>
<rect width="40" height="40" transform="translate(216 199)" fill="#006746"/>
<path d="M249.75 202.75H227.25C225.592 202.75 224.003 203.408 222.831 204.581C221.658 205.753 221 207.342 221 209V220.25C221 221.245 221.395 222.198 222.098 222.902C222.802 223.605 223.755 224 224.75 224H232.25L231.017 231.292C231.006 231.361 231 231.43 231 231.5C231 232.826 231.527 234.098 232.464 235.036C233.402 235.973 234.674 236.5 236 236.5C237.326 236.5 238.598 235.973 239.536 235.036C240.473 234.098 241 232.826 241 231.5C241 231.43 240.994 231.361 240.983 231.292L239.75 224H247.25C248.245 224 249.198 223.605 249.902 222.902C250.605 222.198 251 221.245 251 220.25V204C251 203.668 250.868 203.351 250.634 203.116C250.399 202.882 250.082 202.75 249.75 202.75ZM227.25 205.25H243.5V211.5C243.5 211.832 243.632 212.149 243.866 212.384C244.101 212.618 244.418 212.75 244.75 212.75C245.082 212.75 245.399 212.618 245.634 212.384C245.868 212.149 246 211.832 246 211.5V205.25H248.5V215.25H223.5V209C223.5 208.005 223.895 207.052 224.598 206.348C225.302 205.645 226.255 205.25 227.25 205.25ZM247.25 221.5H239.75C239.392 221.5 239.038 221.577 238.712 221.726C238.386 221.874 238.096 222.091 237.861 222.362C237.627 222.632 237.453 222.95 237.352 223.294C237.251 223.637 237.224 223.999 237.275 224.353V224.384L238.5 231.594C238.5 232.257 238.237 232.893 237.768 233.362C237.299 233.83 236.663 234.094 236 234.094C235.337 234.094 234.701 233.83 234.232 233.362C233.763 232.893 233.5 232.257 233.5 231.594L234.719 224.384V224.353C234.769 223.999 234.743 223.638 234.642 223.295C234.542 222.952 234.368 222.635 234.134 222.364C233.9 222.094 233.611 221.877 233.286 221.728C232.961 221.578 232.608 221.501 232.25 221.5H224.75C224.418 221.5 224.101 221.368 223.866 221.134C223.632 220.899 223.5 220.582 223.5 220.25V217.75H248.5V220.25C248.5 220.582 248.368 220.899 248.134 221.134C247.899 221.368 247.582 221.5 247.25 221.5Z" fill="#1A8663"/>
<g clip-path="url(#clip1_2778_69)">
<path d="M154.134 62.5771L153.024 60.1983C152.323 58.6962 151.054 57.534 149.497 56.9674C147.939 56.4008 146.22 56.4763 144.718 57.1771L131.124 63.5194C129.622 64.2203 128.46 65.4892 127.893 67.0469C127.327 68.6047 127.402 70.3237 128.103 71.8259L129.213 74.2047C128.054 75.0621 127.227 76.2938 126.872 77.6911C126.517 79.0885 126.657 80.5655 127.266 81.872C127.876 83.1785 128.918 84.2341 130.217 84.8599C131.516 85.4857 132.991 85.6432 134.393 85.3058L136.56 89.9502C136.84 90.551 137.348 91.0159 137.971 91.2425C138.594 91.4692 139.281 91.439 139.882 91.1586L160.272 81.6452C160.873 81.3648 161.338 80.8573 161.564 80.2342C161.791 79.6111 161.761 78.9235 161.48 78.3226L159.314 73.6783C160.473 72.8209 161.3 71.5892 161.654 70.1918C162.009 68.7945 161.87 67.3174 161.26 66.0109C160.651 64.7045 159.608 63.6489 158.31 63.0231C157.011 62.3973 155.536 62.2397 154.134 62.5771ZM132.181 65.785L145.775 59.4427C146.676 59.0221 147.707 58.9769 148.642 59.3168C149.577 59.6568 150.338 60.3541 150.759 61.2554L151.868 63.6342C150.713 64.4936 149.888 65.7251 149.535 67.1213C149.181 68.5175 149.32 69.9929 149.927 71.2989L138.599 76.5841C137.989 75.2797 136.947 74.2256 135.65 73.5996C134.353 72.9736 132.88 72.814 131.479 73.1477L130.369 70.7688C129.948 69.8676 129.903 68.8361 130.243 67.9015C130.583 66.9668 131.28 66.2055 132.181 65.785ZM157.232 72.0288L157.177 72.0545C156.876 72.1947 156.644 72.4485 156.53 72.76C156.417 73.0716 156.432 73.4154 156.572 73.7158L159.215 79.3797L138.825 88.8931L136.183 83.2293C136.042 82.9288 135.789 82.6964 135.477 82.5831C135.165 82.4698 134.822 82.4849 134.521 82.625L134.466 82.6508C133.791 82.9524 133.042 83.0478 132.314 82.9252C131.585 82.8026 130.908 82.4673 130.37 81.9615C129.831 81.4558 129.453 80.802 129.285 80.0825C129.116 79.3629 129.164 78.6095 129.422 77.917C129.68 77.2245 130.137 76.6238 130.736 76.1902C131.335 75.7567 132.048 75.5096 132.786 75.4802C133.525 75.4507 134.255 75.6401 134.887 76.0246C135.518 76.409 136.021 76.9715 136.334 77.6412L138.977 83.305C139.117 83.6054 139.371 83.8379 139.682 83.9512C139.994 84.0645 140.337 84.0494 140.638 83.9092C140.938 83.7691 141.171 83.5153 141.284 83.2037C141.397 82.8922 141.382 82.5484 141.242 82.2479L139.657 78.8496L150.984 73.5644L152.57 76.9627C152.71 77.2631 152.964 77.4956 153.275 77.6089C153.587 77.7222 153.931 77.7071 154.231 77.5669C154.531 77.4268 154.764 77.173 154.877 76.8614C154.991 76.5499 154.975 76.2061 154.835 75.9056L152.193 70.2418C151.88 69.572 151.773 68.8248 151.884 68.0941C151.994 67.3634 152.319 66.6818 152.816 66.1348C153.313 65.5878 153.96 65.1999 154.677 65.0198C155.394 64.8396 156.148 64.8753 156.845 65.1223C157.541 65.3693 158.149 65.8167 158.592 66.4081C159.035 66.9996 159.294 67.7088 159.335 68.4467C159.377 69.1846 159.199 69.9183 158.825 70.5556C158.451 71.1929 157.896 71.7054 157.232 72.0288Z" fill="#159A6F"/>
</g>
<g clip-path="url(#clip2_2778_69)">
<path d="M212.772 133.744L213.355 128.437C213.428 127.778 213.236 127.117 212.821 126.6C212.406 126.083 211.803 125.751 211.144 125.679L181.323 122.401C180.664 122.328 180.003 122.521 179.486 122.935C178.969 123.35 178.637 123.954 178.565 124.613L177.982 129.92C177.581 130.096 177.233 130.375 176.973 130.728C176.714 131.081 176.552 131.496 176.503 131.931L175.683 139.386C175.611 140.045 175.803 140.706 176.218 141.223C176.633 141.741 177.236 142.072 177.895 142.144L179.138 142.281L178.865 144.766C178.828 145.096 178.925 145.426 179.132 145.685C179.339 145.943 179.641 146.109 179.971 146.145C180.3 146.181 180.631 146.085 180.889 145.878C181.148 145.67 181.313 145.369 181.35 145.039L181.623 142.554L206.473 145.286L206.2 147.771C206.164 148.1 206.26 148.431 206.467 148.69C206.675 148.948 206.976 149.114 207.306 149.15C207.635 149.186 207.966 149.09 208.225 148.883C208.483 148.675 208.649 148.374 208.685 148.044L208.958 145.559L210.201 145.696C210.86 145.768 211.521 145.576 212.038 145.161C212.555 144.746 212.886 144.143 212.959 143.484L213.778 136.029C213.826 135.593 213.757 135.153 213.581 134.752C213.404 134.351 213.125 134.003 212.772 133.744ZM210.324 133.134L209.082 132.997C208.422 132.925 207.762 133.117 207.244 133.532C206.727 133.947 206.396 134.55 206.323 135.209L206.05 137.694L196.11 136.602L197.203 126.661L210.87 128.164L210.324 133.134ZM194.718 126.388L193.625 136.328L183.685 135.236L183.958 132.751C184.031 132.092 183.838 131.431 183.423 130.913C183.009 130.396 182.405 130.065 181.746 129.992L180.504 129.856L181.05 124.886L194.718 126.388ZM210.474 143.211L178.168 139.659L178.988 132.204L181.473 132.477L181.063 136.205C181.027 136.535 181.123 136.865 181.331 137.124C181.538 137.382 181.84 137.548 182.169 137.584L207.02 140.316C207.349 140.352 207.679 140.256 207.938 140.049C208.197 139.841 208.362 139.539 208.399 139.21L208.808 135.482L211.293 135.756L210.474 143.211Z" fill="#159A6F"/>
</g>
<g clip-path="url(#clip3_2778_69)">
<path d="M223.801 65.7707C223.715 66.0911 223.507 66.3646 223.22 66.5309C222.933 66.6973 222.592 66.743 222.272 66.6579L219.855 66.0161C219.535 65.931 219.261 65.7221 219.095 65.4353C218.929 65.1486 218.883 64.8075 218.968 64.4871C219.053 64.1667 219.262 63.8932 219.549 63.7268C219.836 63.5604 220.177 63.5148 220.497 63.5999L222.913 64.2417C223.234 64.3268 223.507 64.5357 223.674 64.8224C223.84 65.1092 223.886 65.4503 223.801 65.7707ZM224.99 46.6864L227.406 47.3282C227.726 47.4133 228.067 47.3676 228.354 47.2012C228.641 47.0348 228.85 46.7613 228.935 46.4409C229.02 46.1205 228.974 45.7794 228.808 45.4927C228.642 45.2059 228.368 44.997 228.048 44.9119L225.631 44.2701C225.311 44.185 224.97 44.2307 224.683 44.3971C224.396 44.5635 224.188 44.8369 224.102 45.1574C224.017 45.4778 224.063 45.8189 224.229 46.1056C224.396 46.3924 224.669 46.6013 224.99 46.6864ZM225.481 54.5768L223.064 53.935C222.744 53.8499 222.403 53.8956 222.116 54.062C221.829 54.2283 221.62 54.5018 221.535 54.8222C221.45 55.1426 221.496 55.4837 221.662 55.7705C221.829 56.0572 222.102 56.2661 222.423 56.3512L224.839 56.993C225.159 57.0781 225.5 57.0325 225.787 56.8661C226.074 56.6997 226.283 56.4262 226.368 56.1058C226.453 55.7854 226.407 55.4443 226.241 55.1576C226.074 54.8708 225.801 54.6619 225.481 54.5768ZM240.771 45.7047L233.711 72.2831C233.541 72.9239 233.123 73.4708 232.549 73.8036C231.976 74.1364 231.294 74.2277 230.653 74.0575L208.907 68.2814C208.266 68.1112 207.719 67.6934 207.386 67.1199C207.054 66.5464 206.962 65.8642 207.133 65.2234L214.192 38.645C214.362 38.0042 214.78 37.4572 215.354 37.1244C215.927 36.7917 216.609 36.7003 217.25 36.8705L238.996 42.6467C239.637 42.8169 240.184 43.2347 240.517 43.8082C240.849 44.3817 240.941 45.0638 240.771 45.7047ZM212.116 56.2003L233.862 61.9764L235.787 54.7277L214.041 48.9516L212.116 56.2003ZM216.608 39.2868L214.683 46.5354L236.429 52.3115L238.354 45.0629L216.608 39.2868ZM231.295 71.6413L233.22 64.3926L211.474 58.6165L209.549 65.8652L231.295 71.6413Z" fill="#159A6F"/>
</g>
<g clip-path="url(#clip4_2778_69)">
<path d="M291.461 139.962L287.471 121.345C287.42 121.106 287.3 120.887 287.126 120.716C286.951 120.544 286.73 120.428 286.491 120.381L266.865 116.529C266.625 116.482 266.376 116.506 266.15 116.599C265.924 116.692 265.73 116.849 265.592 117.051L254.862 132.779C254.746 132.95 254.673 133.147 254.652 133.353C254.63 133.558 254.66 133.766 254.738 133.958C254.817 134.149 254.941 134.318 255.101 134.449C255.261 134.58 255.451 134.67 255.654 134.71L271.599 137.84L270.155 145.199L266.475 144.477C266.15 144.413 265.812 144.481 265.537 144.666C265.262 144.851 265.072 145.137 265.008 145.463C264.944 145.788 265.012 146.125 265.197 146.401C265.382 146.676 265.668 146.866 265.994 146.93L275.806 148.856C276.132 148.92 276.469 148.852 276.744 148.667C277.019 148.482 277.21 148.195 277.274 147.87C277.338 147.545 277.27 147.207 277.085 146.932C276.9 146.657 276.613 146.467 276.288 146.403L272.608 145.681L274.053 138.321L282.639 140.006L281.676 144.913C281.612 145.238 281.68 145.575 281.865 145.85C282.05 146.126 282.336 146.316 282.662 146.38C282.987 146.444 283.324 146.376 283.599 146.191C283.875 146.006 284.065 145.719 284.129 145.394L285.092 140.488L289.998 141.451C290.201 141.49 290.411 141.479 290.608 141.418C290.806 141.357 290.985 141.247 291.13 141.1C291.275 140.952 291.381 140.771 291.439 140.573C291.497 140.374 291.504 140.164 291.461 139.962ZM257.995 132.622L267.193 119.141L285.199 122.675L288.62 138.632L257.995 132.622Z" fill="#159A6F"/>
</g>
<g clip-path="url(#clip5_2778_69)">
<path d="M332.376 56.3478C332.497 56.6564 332.49 57.0005 332.358 57.3043C332.225 57.6081 331.977 57.8467 331.668 57.9676L329.243 58.9179C329.603 60.6527 329.338 62.4589 328.496 64.0175C327.653 65.576 326.286 66.7865 324.638 67.4352L318.818 69.7153L320.187 73.2069L323.678 71.8388C324.913 71.355 326.289 71.3815 327.504 71.9124C328.719 72.4434 329.674 73.4353 330.158 74.67C330.279 74.9786 330.272 75.3227 330.139 75.6265C330.006 75.9303 329.758 76.1689 329.45 76.2899C329.141 76.4108 328.797 76.4042 328.493 76.2714C328.189 76.1387 327.951 75.8907 327.83 75.5821C327.588 74.9647 327.111 74.4688 326.503 74.2033C325.896 73.9378 325.207 73.9245 324.59 74.1664L321.099 75.5346L322.011 77.8622C322.132 78.1709 322.125 78.515 321.992 78.8188C321.86 79.1226 321.612 79.3612 321.303 79.4821C320.994 79.6031 320.65 79.5965 320.346 79.4637C320.043 79.331 319.804 79.083 319.683 78.7743L318.771 76.4466L315.279 77.8148C314.662 78.0566 314.166 78.5339 313.901 79.1414C313.635 79.749 313.622 80.4372 313.864 81.0545C313.985 81.3632 313.978 81.7073 313.845 82.011C313.713 82.3148 313.465 82.5534 313.156 82.6744C312.847 82.7953 312.503 82.7887 312.199 82.656C311.896 82.5232 311.657 82.2753 311.536 81.9666C311.052 80.7319 311.079 79.3556 311.61 78.1405C312.141 76.9253 313.133 75.9709 314.367 75.4871L317.859 74.119L316.491 70.6274L310.672 72.9076C309.021 73.5517 307.196 73.5918 305.519 73.0206C303.842 72.4495 302.42 71.304 301.506 69.7864L299.081 70.7367C298.772 70.8577 298.428 70.851 298.124 70.7183C297.82 70.5856 297.582 70.3376 297.461 70.0289C297.34 69.7202 297.346 69.3762 297.479 69.0724C297.612 68.7686 297.86 68.53 298.169 68.409L301.66 67.0409C301.969 66.92 302.313 66.9266 302.617 67.0593C302.92 67.1921 303.159 67.44 303.28 67.7487C303.764 68.9834 304.718 69.9753 305.933 70.5063C307.148 71.0372 308.525 71.0637 309.759 70.5799L323.726 65.1075C324.96 64.6237 325.952 63.6692 326.483 62.4541C327.014 61.2389 327.041 59.8626 326.557 58.628C326.436 58.3193 326.442 57.9752 326.575 57.6714C326.708 57.3676 326.956 57.129 327.265 57.0081L330.756 55.64C331.065 55.519 331.409 55.5256 331.713 55.6584C332.016 55.7911 332.255 56.0391 332.376 56.3478ZM306.774 68.1384C306.457 67.9721 306.179 67.7396 305.96 67.4567C305.74 67.1739 305.584 66.8472 305.502 66.4987L302.026 51.7505C301.89 51.1648 301.969 50.55 302.248 50.0175C302.527 49.4851 302.988 49.0704 303.547 48.8487L313.521 44.9404C314.082 44.7235 314.701 44.7148 315.268 44.9159C315.834 45.117 316.31 45.5145 316.609 46.0364L324.077 59.2204C324.253 59.532 324.361 59.878 324.392 60.2348C324.423 60.5916 324.377 60.9509 324.257 61.2884C324.138 61.6259 323.947 61.9337 323.698 62.191C323.448 62.4484 323.147 62.6491 322.813 62.7798L308.847 68.2522C308.514 68.383 308.156 68.4404 307.798 68.4208C307.44 68.4012 307.091 68.3048 306.774 68.1384ZM307.935 65.9246L321.901 60.4521L314.433 47.2681L304.457 51.1769L307.935 65.9246Z" fill="#159A6F"/>
</g>
</g>
<defs>
<clipPath id="clip0_2778_69">
<rect width="473" height="272" rx="40" fill="white"/>
</clipPath>
<clipPath id="clip1_2778_69">
<rect width="40" height="40" fill="white" transform="translate(124 54)"/>
</clipPath>
<clipPath id="clip2_2778_69">
<rect width="40" height="40" fill="white" transform="translate(177.309 113.157) rotate(6.27329)"/>
</clipPath>
<clipPath id="clip3_2778_69">
<rect width="40" height="40" fill="white" transform="translate(209.756 31) rotate(14.8753)"/>
</clipPath>
<clipPath id="clip4_2778_69">
<rect width="40" height="40" fill="white" transform="translate(258.016 109.697) rotate(11.104)"/>
</clipPath>
<clipPath id="clip5_2778_69">
<rect width="40" height="40" fill="white" transform="translate(289 51.8635) rotate(-21.3971)"/>
</clipPath>
</defs>
</svg>
