<svg width="437" height="327" viewBox="0 0 437 327" fill="none" xmlns="http://www.w3.org/2000/svg">
<circle cx="96.5" cy="93.5" r="61" fill="#1A8663"/>
<circle cx="218.5" cy="93.5" r="61" fill="#1A8663"/>
<path d="M341.955 154.983C374.972 154.204 401.5 126.975 401.5 93.5C401.5 59.5345 374.189 32 340.5 32C307.297 32 280.29 58.7453 279.517 92.0332L279.5 155L341.955 154.983Z" fill="#1A8663"/>
<path d="M28 225C28 191.311 55.3106 164 89 164C122.689 164 150 191.311 150 225V286H28V225Z" fill="#1A8663"/>
<circle cx="211" cy="225" r="61" fill="#1A8663"/>
<path d="M272 225C309.832 225 340.5 193.66 340.5 155C340.5 193.66 371.169 225 409 225C371.169 225 340.5 256.34 340.5 295C340.5 256.34 309.832 225 272 225Z" fill="#1A8663"/>
</svg>
