<svg width="381" height="263" viewBox="0 0 381 263" fill="none" xmlns="http://www.w3.org/2000/svg">
<circle cx="61" cy="61" r="61" fill="#1A8663"/>
<circle cx="183" cy="61" r="61" fill="#1A8663"/>
<path d="M306.455 122.983C339.472 122.204 366 94.9752 366 61.5C366 27.5345 338.689 0 305 0C271.797 0 244.79 26.7453 244.017 60.0332L244 123L306.455 122.983Z" fill="#1A8663"/>
<path d="M0 184C0 150.311 27.3106 123 61 123V123C94.6894 123 122 150.311 122 184V245H0V184Z" fill="#1A8663"/>
<circle cx="183" cy="184" r="61" fill="#1A8663"/>
<path d="M244 193C281.832 193 312.5 161.66 312.5 123C312.5 161.66 343.169 193 381 193C343.169 193 312.5 224.34 312.5 263C312.5 224.34 281.832 193 244 193Z" fill="#1A8663"/>
</svg>
