<svg width="532" height="372" viewBox="0 0 532 372" fill="none" xmlns="http://www.w3.org/2000/svg">
<path d="M408.718 114.905C408.941 115.204 409.238 115.427 409.609 115.427C413.176 116.024 415.406 118.261 416.669 121.394C417.858 124.377 417.561 127.435 415.926 130.343C414.44 132.954 412.21 134.52 409.238 135.042C408.569 135.191 407.9 135.489 406.934 135.788C409.164 137.205 411.244 138.249 412.508 140.486C413.771 142.724 413.697 145.11 414.142 147.497C414.44 146.453 415.034 145.558 415.48 144.663C416.149 143.395 417.041 142.276 418.304 141.605C419.567 140.934 420.756 140.113 422.242 139.74C425.586 139.069 428.262 140.113 430.862 142.201C434.875 145.334 435.395 151.822 432.497 155.626C431.011 157.639 429.153 159.355 426.404 159.728C425.586 159.802 424.843 160.175 423.58 160.473C429.525 163.009 431.754 167.559 430.565 173.301C429.822 177.03 427.964 179.864 420.533 181.58C423.06 182.847 425.066 184.414 426.181 186.8C427.37 189.261 427.518 192.021 426.924 194.482C426.478 196.57 425.289 198.658 423.357 200.001C421.574 201.194 419.641 202.313 417.264 202.238C417.932 202.835 418.378 203.506 419.121 203.953C420.682 204.923 421.722 206.415 422.54 208.13C423.283 209.621 423.506 211.113 423.58 212.754C423.729 215.662 422.317 217.825 420.608 219.839C418.898 221.853 416.743 223.046 413.994 223.12C413.771 223.12 413.548 223.12 413.399 223.419C417.635 225.582 420.31 228.863 420.533 233.86C421.871 231.324 423.506 229.31 426.107 228.192C428.782 227.073 431.606 226.999 434.206 228.341C438.814 230.727 440.449 234.829 439.334 239.602C438.294 244.152 434.504 247.21 428.856 246.762C426.255 246.538 424.1 245.345 422.465 243.406C420.83 241.542 420.087 239.23 420.087 236.619C419.047 238.558 417.932 240.274 416.223 241.616C414.44 242.959 412.433 243.63 409.981 244.152C412.731 245.643 414.811 247.433 415.629 250.118C416.446 252.803 416.595 255.786 415.034 258.247C412.21 262.722 408.941 264.587 403.07 263.095C398.611 261.976 396.159 258.098 396.308 253.251C396.456 248.477 399.355 244.077 405.745 243.63C405.745 243.108 405.522 242.735 405.076 242.511C401.881 241.019 400.395 238.26 399.503 235.053C399.429 234.829 399.355 234.606 399.206 234.084C398.24 235.948 396.902 237.216 395.49 238.484C394.004 239.901 391.923 239.901 390.14 241.019C393.187 242.809 394.97 245.271 395.565 248.477C396.233 251.684 395.49 254.593 393.484 257.054C391.478 259.664 388.579 260.709 385.31 261.156C388.208 262.573 390.289 264.661 391.106 267.719C391.626 269.733 391.7 271.895 390.883 273.909C388.802 279.353 384.418 281.143 378.993 280.248C375.352 279.652 372.082 275.326 371.785 271.075C371.488 266.6 373.866 261.753 381.148 260.485C379.885 258.993 377.953 258.397 376.838 256.681C375.798 255.04 375.129 253.251 374.609 250.939C373.94 252.654 372.974 253.698 372.008 254.593C370.745 255.861 369.184 256.756 367.401 257.278C366.509 257.576 366.36 258.024 367.029 258.62C367.698 259.217 368.367 259.814 368.887 260.485C370.968 263.17 371.711 266.004 370.745 269.434C369.927 272.567 367.995 274.655 365.32 276.146C361.753 278.011 358.26 277.564 354.916 275.475C353.727 274.729 352.836 273.462 352.018 272.268C350.904 270.702 350.606 268.838 350.086 266.6C348.154 271.97 344.439 274.207 339.237 274.58C340.872 275.774 342.804 276.445 343.918 278.086C345.033 279.726 345.776 281.442 345.925 283.455C346.073 285.544 345.553 287.483 344.439 289.198C342.135 292.703 337.899 294.791 333.961 293.524C328.759 291.883 326.084 287.93 326.678 282.71C327.124 279.055 329.279 275.028 337.082 273.984C334.778 272.79 332.623 271.821 331.36 269.658C330.097 267.57 329.576 265.258 329.353 262.722C328.387 264.96 327.347 267.122 325.266 268.465C323.186 269.733 321.031 270.628 318.43 270.777C323.409 273.163 325.861 276.892 324.969 282.411C322.294 289.347 317.835 290.391 313.674 289.72C309.289 289.049 306.317 285.096 305.797 281.367C305.351 278.235 306.614 275.624 308.695 273.387C310.85 271.075 313.748 270.628 316.721 270.255C314.045 269.509 311.965 268.017 310.553 265.855C309.066 263.692 308.695 261.081 308.844 258.471C308.249 258.322 308.249 258.62 308.249 258.844C307.655 261.753 305.797 263.692 303.419 265.258C300.892 266.824 298.143 267.122 295.393 266.153C292.941 265.258 290.86 263.766 289.597 261.305C288.854 259.963 288.631 258.546 288.259 257.129C288.111 256.681 288.185 256.159 287.665 255.563C286.624 259.142 284.098 261.156 280.903 262.126C278.822 262.722 276.518 262.722 274.512 261.603C269.979 259.142 268.121 256.01 268.864 250.715C269.533 246.165 273.843 243.108 277.781 242.884C280.977 242.66 283.578 243.928 285.658 246.091C287.813 248.328 288.185 251.311 288.259 254.369C289.894 249.298 293.312 246.613 298.514 245.793C294.724 243.928 292.346 241.169 291.603 237.067C290.786 237.216 290.414 237.887 290.043 238.409C287.888 241.318 282.612 242.735 279.268 241.765C274.215 240.199 271.093 234.979 271.985 230.131C272.654 226.253 274.809 223.344 278.748 222.151C279.342 221.927 279.936 221.554 280.605 221.554C280.828 221.554 281.051 221.405 281.125 221.107C281.125 220.808 280.977 220.659 280.68 220.585C277.781 219.615 276.295 217.303 274.958 214.767C274.586 214.022 274.809 213.127 274.363 212.381C273.917 212.455 273.546 212.679 273.323 213.052C271.539 215.812 268.864 217.005 265.817 217.527C263.662 217.9 261.656 217.005 259.798 215.961C256.677 214.245 255.191 211.337 254.968 207.981C254.745 204.699 255.785 201.791 258.535 199.553C260.318 198.062 262.325 197.465 264.405 197.017C264.777 196.943 265.149 197.018 265.446 196.495C260.021 194.929 258.015 190.827 257.346 185.159C256.083 188.217 254.522 190.38 251.773 191.573C249.023 192.692 246.199 192.692 243.673 191.424C239.808 189.41 237.43 185.532 238.397 180.759C239.363 176.135 242.781 173.376 247.462 173.003C249.32 172.854 251.029 173.525 252.664 174.345C254.522 175.24 255.562 176.732 256.454 178.447C257.272 180.088 257.495 181.952 257.717 183.817C258.758 181.58 259.724 179.268 261.953 178C264.034 176.806 266.189 175.688 268.79 175.688C266.709 174.644 264.777 173.749 263.439 171.735C262.176 169.871 261.21 167.857 260.913 165.545C259.872 167.931 258.461 169.871 256.083 171.064C253.779 172.257 251.401 172.779 248.949 171.884C242.855 169.721 241.443 165.097 241.963 160.996C242.632 156.297 246.794 153.388 250.361 152.866C253.333 152.419 255.86 153.538 258.015 155.327C260.244 157.192 260.987 159.877 261.433 162.711C262.25 160.623 263.588 158.907 265.074 157.49C266.635 155.999 268.864 155.775 270.945 154.88C266.709 152.046 264.183 148.541 265.297 143.395C266.56 137.652 271.242 135.34 274.809 135.116C277.559 134.893 279.936 136.086 282.017 137.801C284.172 139.591 284.841 142.127 285.733 144.588C286.402 144.737 286.253 144.215 286.476 143.991C287.888 141.754 289.746 140.039 292.124 138.995C292.644 138.771 293.164 138.771 293.684 138.696C294.13 138.622 294.576 138.622 294.65 138.1C294.799 137.503 294.353 137.428 293.981 137.205C292.049 135.788 290.563 134.072 289.894 131.611C289.077 128.777 289.225 126.092 290.489 123.482C291.678 121.095 293.61 119.678 295.988 118.56C297.92 117.59 299.926 117.814 301.858 117.889C302.75 117.963 303.642 118.634 304.533 119.082C307.58 120.573 309.289 123.184 310.107 126.391C310.181 126.689 310.181 126.987 310.478 127.211C311.593 125.645 312.931 124.302 314.343 122.96C315.829 121.543 317.984 121.767 319.544 120.573C314.194 116.919 313.079 112.519 314.12 108.939C315.829 102.823 320.51 100.437 325.192 100.884C329.428 101.332 333.663 103.644 335.001 111.549C337.528 105.881 341.838 103.793 347.634 104.39C352.167 106.329 355.511 109.312 355.734 114.831C358.186 110.356 361.53 107.746 366.732 108.119C372.082 108.491 374.832 111.773 376.467 116.695C378.919 113.414 381.743 111.102 385.979 111.027C384.715 110.207 383.675 109.312 382.635 108.342C381.074 107 380.331 105.21 380.034 103.271C379.885 102.003 379.885 100.735 380.034 99.5419C380.257 97.9757 381 96.4841 382.04 95.2909C385.458 91.189 391.255 90.7415 395.416 93.5755C398.909 95.9621 400.172 100.884 398.834 104.762C397.794 107.895 395.565 109.759 392.667 111.027C392.146 111.251 391.626 111.176 391.106 111.251C390.586 111.326 389.991 111.102 389.545 111.698C391.923 112.668 393.633 114.309 394.97 116.471C396.308 118.634 396.605 120.946 396.679 123.407C397.274 122.587 397.348 121.543 397.72 120.723C399.577 116.994 402.699 115.577 406.563 115.204C407.529 114.905 408.123 114.98 408.718 114.905ZM301.041 246.389C304.088 247.433 306.391 249.372 307.877 252.206C308.621 253.623 308.621 255.19 308.992 256.681C309.066 256.98 308.992 257.427 309.661 257.427C309.884 255.19 311.444 253.773 312.856 252.281C314.343 250.715 316.646 250.64 318.653 249.522C317.018 248.85 315.977 247.806 315.011 246.762C313.822 245.494 312.856 244.077 312.708 242.287C312.633 241.765 312.336 241.169 311.816 241.094C311.296 240.945 311.221 241.616 311.073 241.914C309.215 244.599 306.689 246.016 303.419 246.165C302.601 246.165 301.784 246.091 301.041 246.389ZM411.096 165.694C412.508 163.68 413.994 162.114 415.852 161.145C417.784 160.101 419.939 160.324 422.019 159.951C420.979 159.728 420.087 159.28 419.344 158.758C416.966 157.192 415.034 155.327 414.588 152.344C414.44 151.524 413.92 150.778 413.474 149.585C411.839 153.761 408.941 155.85 405.076 156.745C408.198 158.982 410.204 161.667 411.096 165.694ZM278.748 185.532C280.68 182.773 282.537 180.386 285.807 179.566C286.253 179.491 286.624 179.342 286.699 178.82C286.773 178.373 286.327 178.298 286.104 178.074C284.172 176.508 282.76 174.644 282.166 172.182C282.017 171.511 281.72 170.84 281.423 170.02C279.119 173.898 275.924 175.911 271.539 175.911C271.242 175.911 270.796 175.911 270.796 176.583C275.478 177.552 277.707 181.057 278.748 185.532ZM266.932 196.868C267.378 197.241 267.452 197.39 267.527 197.39C270.276 197.912 272.282 199.553 273.769 201.865C274.363 202.835 274.809 203.804 274.958 204.998C275.106 205.743 275.701 205.892 276.221 205.296C276.37 205.147 276.444 204.848 276.592 204.699C277.93 203.133 279.193 201.641 281.348 200.97C282.092 200.746 282.909 200.672 283.726 200.224C282.389 198.733 280.903 197.54 279.714 196.123C278.45 194.631 278.673 192.543 277.484 190.902C275.255 194.929 271.837 196.794 266.932 196.868ZM388.579 132.208C388.654 132.581 388.802 132.655 388.951 132.73C391.329 134.072 393.038 136.011 393.856 138.696C394.153 139.666 394.599 139.666 395.342 138.995C397.645 136.981 400.023 135.34 403.293 135.489C403.665 135.489 404.11 135.489 404.556 135.191C403.293 134.967 402.327 134.072 401.287 133.55C400.246 133.028 399.577 132.208 398.983 131.238C397.794 129.448 397.274 127.509 396.977 125.421C396.902 125.123 396.828 124.75 396.531 124.75C396.159 124.75 396.085 125.048 396.011 125.346C395.119 128.031 393.261 129.896 390.734 130.94C389.917 131.238 389.248 131.686 388.579 132.208ZM324.077 250.715C326.084 251.684 327.347 253.251 328.387 255.04C329.428 256.83 329.799 258.769 330.319 260.858C331.731 256.532 334.927 254.444 338.94 253.4C338.865 253.176 338.94 253.101 338.865 253.027C336.19 251.311 334.184 249.149 333.292 246.091C333.218 245.718 332.92 245.345 332.326 245.345C330.542 248.477 327.496 249.745 324.077 250.715ZM350.904 264.065C352.39 260.932 354.173 258.322 357.666 257.278C359.078 256.83 359.152 256.308 358.038 255.264C356.254 253.773 354.768 252.057 354.396 249.671C354.322 249.447 354.322 249.149 354.025 249.149C353.653 249.074 353.356 249.223 353.133 249.522C351.572 251.461 349.789 253.027 347.262 253.698C346.594 253.922 345.776 253.922 345.107 254.518C346.891 255.563 348.228 256.83 349.269 258.471C350.161 260.261 350.532 262.126 350.904 264.065ZM282.463 164.426C282.983 164.202 283.058 163.979 283.132 163.755C284.395 161.219 286.476 159.802 289.002 158.833C289.374 158.684 289.894 158.833 289.968 158.236C289.968 157.714 289.746 157.416 289.3 157.117C288.111 156.222 287.219 155.029 286.624 153.538C286.253 152.643 286.104 151.748 285.881 150.853C285.807 150.405 285.584 149.883 285.064 149.883C284.544 149.883 284.618 150.331 284.469 150.629C282.909 152.866 281.125 154.656 278.302 155.178C277.707 155.327 277.038 155.477 276.667 156.148C279.862 158.012 281.72 160.846 282.463 164.426ZM339.46 123.557C337.825 122.289 336.785 120.946 335.967 119.38C335.15 117.814 335.224 116.024 334.927 114.085C333.812 116.173 332.697 117.739 331.286 119.156C329.799 120.648 327.644 120.797 325.712 121.767C328.313 123.78 330.84 125.645 331.657 129.374C333.738 126.316 336.264 124.601 339.46 123.557ZM300.595 224.687C297.177 222.897 295.69 219.988 294.724 216.707C291.901 219.69 290.489 220.883 286.327 221.853C287.591 223.27 289.374 223.866 290.489 225.283C291.603 226.775 291.975 228.639 292.941 230.355C294.576 227.744 296.434 226.402 300.595 224.687ZM395.044 220.063C395.788 220.659 396.233 221.181 396.754 221.629C398.24 222.971 399.429 224.537 399.726 226.7C399.8 227.446 400.172 228.117 400.841 228.788C402.624 225.134 405.597 223.493 409.535 222.747C407.009 221.405 405.002 219.913 403.739 217.676C403.442 217.154 403.516 216.483 403.144 216.035C402.773 215.588 402.476 215.215 401.955 215.961C400.246 218.049 397.943 219.242 395.044 220.063ZM370.968 237.216C371.414 237.738 371.636 238.111 371.934 238.409C373.346 240.199 375.203 241.691 375.352 244.152C375.352 244.599 375.575 245.196 376.392 245.345C378.176 242.138 381.074 240.497 384.864 239.752C381.594 237.887 379.513 235.501 378.622 232.07C377.135 233.039 376.541 234.531 375.352 235.277C374.089 236.246 372.751 236.843 370.968 237.216ZM314.045 140.635C313.079 139.442 312.188 138.323 311.296 137.279C310.404 136.161 310.701 134.371 309.512 133.252C308.546 134.893 307.283 136.086 305.871 137.13C304.459 138.174 302.676 138.472 300.669 138.92C304.088 140.486 305.871 143.096 307.283 146.602C308.546 143.022 311.37 141.978 314.045 140.635ZM409.907 171.959C408.198 174.644 406.414 176.583 403.813 177.552C403.144 177.776 403.367 178.149 403.59 178.522C403.739 178.745 404.036 178.895 404.259 179.118C405.671 180.312 406.786 181.729 407.38 183.444C407.529 183.966 407.9 184.414 408.272 185.01C409.387 183.593 410.724 182.847 412.062 182.027C413.399 181.207 415.034 181.132 416.595 180.759C412.953 178.969 410.947 176.061 409.907 171.959ZM375.798 123.407C374.014 126.316 371.711 127.808 368.813 129.15C371.859 130.791 372.602 133.699 374.014 136.31C375.426 134.147 377.21 132.655 379.588 132.059C380.331 131.835 380.777 131.387 381.446 130.716C378.547 129.15 376.987 126.689 375.798 123.407ZM355.66 118.56C354.025 120.946 352.761 122.96 350.532 124.079C350.086 124.302 349.492 124.377 349.046 124.675C348.6 124.974 348.228 125.346 348.897 125.869C349.938 126.763 350.606 127.882 351.498 128.926C352.241 129.821 352.316 131.089 353.43 131.984C354.025 130.642 355.065 129.821 356.18 129.075C357.294 128.33 358.781 128.031 359.97 127.062C357.443 124.899 355.882 122.289 355.66 118.56ZM320.065 228.565C319.693 228.117 319.47 227.819 319.098 227.595C317.538 226.476 316.795 224.687 315.754 223.195C315.011 222.151 315.086 222.076 314.12 222.897C313.005 223.866 311.816 224.612 310.478 225.283C309.661 225.656 308.769 225.88 307.952 226.402C310.701 228.341 312.336 230.877 313.005 234.084C314.268 233.114 314.863 231.697 316.126 230.877C317.464 230.056 318.504 229.012 320.065 228.565ZM295.988 209.249C297.474 206.862 299.183 205.445 301.264 204.401C302.601 203.73 302.676 203.506 301.635 202.462C300.372 201.194 299.332 199.852 298.812 198.062C298.44 196.719 297.994 196.57 296.954 197.689C295.616 199.106 294.13 200.299 292.124 200.672C291.603 200.746 291.157 201.045 290.86 201.567C293.238 203.431 295.319 205.594 295.988 209.249ZM404.333 206.116C406.86 203.879 409.089 201.791 412.508 201.641C411.839 201.343 411.616 200.821 411.096 200.523C409.609 199.777 408.643 198.584 407.826 197.241C407.454 196.57 407.306 195.75 406.786 195.228C406.488 195.004 406.34 194.631 405.968 195.078C404.259 196.943 402.104 198.211 399.503 199.479C402.253 200.896 403.07 203.581 404.333 206.116ZM362.05 236.172C361.976 235.873 362.05 235.799 361.976 235.799C360.415 234.233 358.706 232.816 357.889 230.653C357.74 230.205 357.146 230.056 356.551 230.578C355.139 231.772 353.802 233.114 351.87 233.562C351.052 233.785 350.978 234.456 351.647 234.979C353.059 236.246 354.173 237.738 354.545 239.677C354.619 240.199 354.991 240.647 355.511 240.87C357.294 238.782 359.078 236.619 362.05 236.172ZM299.852 187.098C301.338 184.861 303.493 183.593 305.722 182.4C304.385 180.61 302.899 179.118 302.23 177.105C302.007 176.359 301.412 176.284 300.818 176.956C299.48 178.298 297.92 179.268 296.062 179.715C295.616 179.79 295.245 179.939 295.096 180.461C294.873 181.057 295.468 181.132 295.69 181.356C297.474 182.847 299.034 184.563 299.852 187.098ZM392.815 148.466C391.106 150.704 389.174 152.27 386.424 153.016C388.282 155.029 390.289 156.745 391.032 159.728C393.038 157.267 395.49 156.297 398.388 155.477C395.342 153.91 394.078 151.3 392.815 148.466ZM340.723 232.294C338.94 230.504 337.379 228.938 336.487 226.775C336.264 226.253 335.744 226.626 335.447 226.849C334.184 228.117 332.697 229.012 330.988 229.534C330.245 229.758 330.097 230.504 330.617 231.1C332.103 232.517 333.143 234.158 333.589 236.172C333.812 236.992 334.555 237.067 335.001 236.396C336.413 234.456 338.196 233.189 340.723 232.294ZM305.797 154.955C303.865 157.192 301.858 158.907 298.886 159.877C301.189 161.443 302.304 163.755 303.567 165.992C305.425 164.053 307.209 162.263 309.81 161.443C308.175 159.355 306.614 157.49 305.797 154.955ZM387.019 218.944C385.161 216.93 383.378 215.14 382.263 212.754C380.628 214.171 379.216 215.588 377.21 216.334C376.541 216.557 376.467 217.229 376.987 217.9C378.25 219.541 379.588 221.181 379.959 223.493C381.074 222.449 381.966 221.405 383.006 220.585C384.121 219.764 385.31 219.093 387.019 218.944ZM370.968 154.88C371.488 154.88 371.636 154.507 371.785 154.283C372.825 153.165 374.089 152.493 375.501 152.046C376.541 151.673 376.615 151.524 375.872 150.629C374.683 149.212 373.42 147.944 372.9 146.08C372.677 145.185 372.157 145.11 371.562 145.856C370.447 147.124 369.11 148.019 367.698 148.839C366.732 149.436 366.658 149.585 367.475 150.48C368.59 151.673 369.779 152.792 370.373 154.433C370.373 154.731 370.67 154.88 370.968 154.88ZM334.555 143.469C332.103 142.201 331.88 139.666 330.394 137.801C328.61 139.74 326.901 141.679 324.152 142.649C326.009 143.693 326.753 145.259 327.644 146.751C328.164 147.646 328.313 147.72 329.056 147.124C330.691 145.781 332.4 144.588 334.555 143.469ZM355.139 147.124C352.836 145.856 352.836 143.096 350.978 141.679C349.566 143.618 347.708 144.737 345.702 145.856C347.114 147.273 348.6 148.615 349.343 150.405C349.566 151.002 350.161 150.704 350.532 150.331C351.498 149.212 352.761 148.541 354.099 147.944C354.322 147.795 354.545 147.497 355.139 147.124ZM389.1 170.765C387.762 171.884 386.722 173.077 385.235 173.749C384.418 174.122 384.418 174.569 384.938 175.315C385.607 176.21 386.35 177.105 386.796 178.074C387.167 178.82 387.613 179.417 388.282 179.864C389.62 178.895 390.66 177.776 392.221 177.328C393.335 177.03 393.335 176.359 392.444 175.613C390.957 174.345 389.843 172.779 389.1 170.765ZM385.979 192.17C385.31 192.394 385.012 192.766 384.641 193.139C383.823 193.96 382.857 194.631 381.891 195.302C381 195.899 380.925 195.973 381.594 196.868C382.337 197.912 383.08 198.957 383.601 200.075C383.749 200.448 383.972 200.97 384.567 201.119C385.83 199.18 388.282 198.807 389.917 197.241C388.282 195.675 386.796 194.258 385.979 192.17ZM321.625 207.086C321.774 206.638 321.253 206.489 320.956 206.265C319.99 205.37 319.321 204.326 318.801 203.133C318.504 202.462 317.909 202.313 317.538 202.909C316.721 204.103 315.383 204.326 314.343 204.923C313.302 205.52 313.228 205.52 314.045 206.415C315.086 207.533 315.903 208.801 316.646 210.069C317.166 210.889 317.315 210.964 318.058 210.293C319.024 209.398 319.916 208.354 321.253 207.906C321.625 207.832 321.625 207.533 321.625 207.086ZM328.908 164.352C328.536 163.83 328.016 163.382 327.867 162.785C327.644 162.114 327.124 161.592 326.901 160.921C326.678 160.175 326.158 160.026 325.415 160.548C324.449 161.219 323.483 162.04 322.294 162.487C321.328 162.935 321.253 163.457 321.997 164.277C322.665 165.023 323.409 165.694 323.854 166.589C324.226 167.559 324.746 167.335 325.341 166.887C326.53 166.142 327.644 165.247 328.908 164.352ZM356.626 213.5C357.592 215.14 358.632 216.483 359.078 218.124C359.227 218.124 359.301 218.124 359.375 218.124C360.936 217.378 361.976 215.812 363.685 215.14C364.205 214.991 364.057 214.395 363.611 213.947C362.942 213.201 362.125 212.53 361.753 211.486C361.382 210.591 360.861 210.666 359.97 211.337C359.004 212.157 358.112 213.127 356.626 213.5ZM322.071 181.729C320.659 182.773 319.173 183.593 317.687 184.339C318.207 185.756 319.396 186.576 320.065 187.77C320.659 188.814 320.733 188.814 321.699 187.993C322.368 187.471 322.963 186.949 323.631 186.502C324.523 185.905 324.597 185.756 324.003 184.861C323.409 183.891 322.665 182.922 322.071 181.729ZM368.218 167.857C367.252 168.677 366.583 169.498 365.617 170.02C364.651 170.542 364.726 170.616 365.469 171.66C365.989 172.332 366.509 173.077 366.881 173.898C367.178 174.494 367.624 174.569 367.995 174.271C368.887 173.674 369.779 173.152 370.745 172.705C371.042 172.555 371.711 172.108 371.191 171.586C370.076 170.467 369.333 169.05 368.218 167.857ZM339.237 207.384C338.271 208.204 337.23 208.801 336.19 209.398C335.67 209.696 335.596 210.069 335.893 210.367C336.785 211.337 337.23 212.53 337.899 213.649C338.271 214.245 338.568 214.096 339.014 213.723C339.757 212.978 340.5 212.232 341.392 211.71C342.061 211.262 341.986 210.74 341.615 210.367C340.723 209.472 340.351 208.13 339.237 207.384ZM347.337 164.65C346.594 164.575 346.296 165.097 345.85 165.396C343.547 167.186 343.621 167.186 345.405 169.498C345.925 170.169 346.445 170.169 346.817 169.721C347.56 168.901 349.269 169.199 349.194 167.559C349.194 167.484 349.194 167.409 349.194 167.409C348.674 166.514 348.228 165.694 347.708 164.874C347.56 164.725 347.337 164.65 347.337 164.65ZM363.685 195.675C364.726 195.153 365.766 194.556 366.732 193.736C367.103 193.438 367.178 193.214 366.881 192.841C366.212 192.021 365.692 191.126 364.874 190.454C364.651 190.305 364.503 190.082 364.28 190.231C363.537 190.753 362.793 191.349 362.125 191.946C361.827 192.244 361.827 192.766 362.05 193.065C362.645 193.885 362.868 194.929 363.685 195.675ZM342.135 191.275C342.952 190.977 343.621 190.529 344.364 190.082C344.884 189.709 344.959 189.187 344.736 188.888C344.364 188.292 344.141 187.546 343.547 187.173C343.324 187.024 343.101 186.651 342.804 186.875C341.986 187.322 341.02 187.695 340.649 188.59C340.426 189.187 341.02 189.709 341.466 190.231C341.689 190.529 341.689 190.977 342.135 191.275Z" fill="#1A8663"/>
<path d="M303.716 117.143C298.143 117.366 293.907 112.593 293.981 107.074C294.056 101.406 298.291 97.2299 303.865 97.2299C309.735 97.2299 313.897 101.779 313.822 107.373C313.748 113.115 309.215 117.516 303.716 117.143Z" fill="#1A8663"/>
<path d="M379.885 97.8266C380.331 102.674 375.055 107.597 369.779 107.597C364.651 107.522 359.821 102.376 360.044 97.3045C360.267 92.1585 364.651 87.6092 370.15 87.6837C375.575 87.7583 380.331 92.5314 379.885 97.8266Z" fill="#1A8663"/>
<path d="M427.816 194.855C427.593 189.485 432.423 185.383 437.699 185.458C443.198 185.532 447.508 189.932 447.434 195.6C447.36 200.746 442.529 205.445 437.179 205.296C432.274 205.147 427.296 200.523 427.816 194.855Z" fill="#1A8663"/>
<path d="M424.174 215.812C423.877 210.591 429.005 206.042 434.355 206.191C439.185 206.34 444.016 211.038 443.793 216.632C443.57 221.703 438.739 226.253 433.686 226.029C428.485 225.954 423.654 221.554 424.174 215.812Z" fill="#1A8663"/>
<path d="M431.457 174.271C431.16 169.423 436.213 164.426 441.415 164.501C446.542 164.575 451.372 169.572 451.298 174.644C451.224 179.268 446.691 184.339 441.192 184.264C435.99 184.19 431.085 179.342 431.457 174.271Z" fill="#1A8663"/>
<path d="M358.929 94.023C359.375 99.0199 354.619 103.793 348.972 103.644C343.695 103.569 339.237 98.9453 339.311 93.5755C339.385 88.6533 343.844 83.8056 349.343 83.8802C354.099 84.0293 359.524 88.5041 358.929 94.023Z" fill="#1A8663"/>
<path d="M289.002 124.452C289.448 129.747 284.618 134.371 279.342 134.371C274.363 134.445 269.533 129.448 269.459 124.601C269.384 119.38 274.215 114.607 279.193 114.607C284.767 114.607 289.374 119.156 289.002 124.452Z" fill="#1A8663"/>
<path d="M271.168 228.266C271.465 233.189 267.081 237.962 261.284 237.887C256.454 237.813 251.624 233.114 251.698 227.894C251.773 223.12 256.528 218.049 261.805 218.198C266.858 218.422 271.614 222.971 271.168 228.266Z" fill="#1A8663"/>
<path d="M318.727 90.2195C318.355 85.0735 323.334 80.3749 328.313 80.3749C333.663 80.3749 338.048 84.7751 338.048 90.0703C337.974 95.6638 333.961 99.6911 328.536 99.7656C323.111 99.9148 318.504 95.3655 318.727 90.2195Z" fill="#1A8663"/>
<path d="M437.625 128.926C437.996 133.401 433.463 138.696 427.89 138.622C422.391 138.547 418.23 133.774 418.23 129.001C418.23 123.78 422.465 119.306 427.89 119.231C433.389 119.156 437.848 124.079 437.625 128.926Z" fill="#1A8663"/>
<path d="M454.716 153.538C454.568 158.982 450.406 163.158 445.13 163.308C439.78 163.457 435.321 158.609 435.321 153.612C435.247 148.615 440.077 143.768 445.13 143.842C450.035 143.842 454.716 148.242 454.716 153.538Z" fill="#1A8663"/>
<path d="M357.294 278.086C362.125 277.936 367.029 282.337 367.029 287.706C366.955 293.374 362.422 297.476 357.443 297.402C351.944 297.327 348.006 293.598 347.857 287.93C347.634 282.262 352.241 278.16 357.294 278.086Z" fill="#1A8663"/>
<path d="M408.718 114.98C408.569 114.756 408.495 114.458 408.346 114.383C407.157 114.234 406.34 113.414 405.448 112.817C403.59 111.698 402.55 109.983 401.881 107.969C400.915 105.285 401.435 102.898 402.55 100.437C403.516 98.2741 405.299 97.0808 407.306 96.2604C408.569 95.7383 409.907 94.9926 411.393 95.2909C413.251 95.7384 415.109 96.335 416.669 97.5283C418.155 98.7215 419.196 100.213 419.864 102.003C421.425 105.881 419.567 110.729 416 112.966C414.291 114.085 412.433 114.682 410.353 114.682C409.832 114.831 409.238 114.831 408.718 114.98Z" fill="#1A8663"/>
<path d="M245.382 141.456C245.828 135.937 249.395 132.208 254.968 132.208C260.541 132.208 264.48 136.608 264.405 141.829C264.331 147.124 259.872 151.375 254.745 151.3C249.469 151.076 245.53 147.049 245.382 141.456Z" fill="#1A8663"/>
<path d="M307.58 96.1113C305.5 95.5892 303.345 95.0671 301.635 93.7247C300.223 92.606 299.257 91.1144 298.812 89.3991C298.663 88.9516 298.514 88.5041 298.291 88.0566C297.92 87.46 297.845 86.7888 297.994 86.1176C298.663 83.3581 299.406 80.5987 301.933 78.8834C303.419 77.8392 305.054 77.0189 306.911 76.7951C309.066 76.5714 311.073 77.3172 312.856 78.585C315.457 80.3749 316.943 82.9107 317.166 85.9684C317.464 89.5482 314.788 94.0976 310.85 95.2163C309.735 95.44 308.844 96.335 307.58 96.1113Z" fill="#1A8663"/>
<path d="M244.49 213.127C239.363 212.679 235.201 209.025 234.904 203.581C234.755 201.045 235.944 198.807 237.728 196.943C239.586 195.004 242.038 193.96 244.49 193.96C246.868 193.96 249.32 195.004 251.104 196.868C252.962 198.733 253.928 201.119 253.928 203.506C253.928 205.892 252.962 208.354 251.029 210.144C249.469 211.784 246.496 213.127 244.49 213.127Z" fill="#1A8663"/>
<path d="M412.21 274.804C411.987 276.669 411.393 278.831 409.832 280.547C407.9 282.635 405.374 283.903 402.699 283.903C400.098 283.903 397.645 282.71 395.788 280.77C394.004 278.981 393.187 276.669 393.261 274.357C393.41 268.614 397.571 264.885 402.699 264.736C407.454 264.661 412.062 268.689 412.21 274.804Z" fill="#1A8663"/>
<path d="M283.132 113.041C277.781 112.743 273.694 109.237 273.62 103.644C273.546 98.3486 277.707 94.0976 282.983 94.0976C288.036 94.023 292.421 97.752 292.495 103.495C292.495 109.014 288.928 112.519 283.132 113.041Z" fill="#1A8663"/>
<path d="M295.765 267.794C301.115 268.092 305.202 271.97 305.128 277.34C305.054 282.933 301.115 286.886 295.69 286.737C290.043 286.662 286.402 283.008 286.327 277.265C286.253 271.821 290.266 268.167 295.765 267.794Z" fill="#1A8663"/>
<path d="M435.841 257.129C435.544 263.095 431.234 266.675 426.404 266.675C421.202 266.675 416.966 262.2 417.041 256.98C417.041 254.444 418.155 252.281 420.013 250.417C421.871 248.627 424.174 247.732 426.552 247.732C429.079 247.732 431.457 248.776 433.315 250.64C435.098 252.43 435.544 254.817 435.841 257.129Z" fill="#1A8663"/>
<path d="M368.887 291.51C368.664 286.886 373.123 282.113 378.102 282.187C383.526 282.262 387.465 286.364 387.316 291.51C387.168 297.327 383.824 300.683 378.102 300.758C372.825 300.907 368.887 296.731 368.887 291.51Z" fill="#1A8663"/>
<path d="M257.866 258.173C252.962 258.62 248.577 253.698 248.651 249.074C248.726 244.003 252.516 239.826 257.94 239.901C263.291 239.975 266.783 243.928 266.932 248.925C267.006 253.996 262.622 258.546 257.866 258.173Z" fill="#1A8663"/>
<path d="M267.675 120.797C267.824 125.57 263.662 129.896 258.461 129.821C253.259 129.747 249.469 125.57 249.543 120.499C249.618 115.8 253.63 111.4 258.906 111.475C263.588 111.624 268.047 116.173 267.675 120.797Z" fill="#1A8663"/>
<path d="M449.217 199.106C448.994 194.183 453.379 189.858 458.283 189.932C463.485 190.007 467.349 193.587 467.424 199.031C467.424 204.55 463.188 208.204 458.358 208.279C453.527 208.354 448.994 203.953 449.217 199.106Z" fill="#1A8663"/>
<path d="M372.974 85.6701C368.144 86.1176 363.908 81.5682 363.908 76.5714C363.908 72.0966 368.515 67.4727 373.048 67.4727C377.656 67.5472 382.189 71.7983 382.114 76.7951C381.891 81.7174 378.102 86.043 372.974 85.6701Z" fill="#1A8663"/>
<path d="M462.222 169.199C467.201 168.901 471.139 173.376 471.139 178.298C471.139 182.847 467.052 187.322 461.999 187.322C457.392 187.322 452.933 182.624 453.007 178.074C453.082 173.525 457.317 168.677 462.222 169.199Z" fill="#1A8663"/>
<path d="M352.91 63.8928C357.369 63.4454 362.199 68.1439 362.125 72.9916C362.05 77.5409 357.963 82.0903 352.984 82.0157C347.931 81.9411 343.993 78.1376 343.918 73.0661C343.844 67.9201 348.006 63.6691 352.91 63.8928Z" fill="#1A8663"/>
<path d="M454.642 228.863C449.589 229.161 445.725 224.91 445.65 219.839C445.576 214.917 450.109 210.74 454.716 210.666C459.472 210.666 463.857 215.364 463.782 219.764C463.782 224.761 459.695 229.311 454.642 228.863Z" fill="#1A8663"/>
<path d="M440.523 108.193C440.746 113.19 436.584 117.143 431.457 117.143C426.701 117.143 422.465 112.743 422.465 107.969C422.465 103.644 426.775 98.8707 431.68 98.9453C436.287 99.0199 440.969 103.047 440.523 108.193Z" fill="#1A8663"/>
<path d="M249.766 224.612C249.84 229.31 245.753 233.636 240.552 233.487C235.647 233.338 231.709 229.385 231.783 224.165C231.857 219.466 236.019 215.215 240.997 215.29C245.456 215.29 250.212 219.764 249.766 224.612Z" fill="#1A8663"/>
<path d="M457.615 132.581C458.135 137.503 453.23 141.679 448.771 141.829C444.164 141.903 439.557 137.13 439.557 132.804C439.557 128.031 443.867 123.557 448.697 123.557C453.676 123.706 457.912 127.658 457.615 132.581Z" fill="#1A8663"/>
<path d="M274.958 282.486C270.053 282.933 265.892 278.086 265.892 273.462C265.892 269.136 270.425 264.363 274.883 264.363C279.416 264.363 284.024 268.614 283.949 273.536C283.875 278.458 279.936 282.784 274.958 282.486Z" fill="#1A8663"/>
<path d="M393.707 71.5C398.314 70.9033 402.773 75.9747 402.847 80.3749C402.847 85.0735 398.463 89.6228 393.781 89.5482C389.025 89.5482 384.79 85.2226 384.79 80.5241C384.715 75.6764 389.248 71.0525 393.707 71.5Z" fill="#1A8663"/>
<path d="M451.001 231.175C455.905 230.877 460.067 235.799 459.992 240.125C459.992 244.45 455.385 249.223 450.927 249.149C446.691 249.074 441.935 244.972 442.083 239.975C442.158 235.202 446.171 230.951 451.001 231.175Z" fill="#1A8663"/>
<path d="M341.02 69.188C341.392 74.334 336.339 78.2867 332.177 78.2867C328.164 78.3613 323.111 74.4086 323.111 69.2626C323.186 64.2657 327.644 60.2384 332.177 60.313C336.71 60.3876 341.243 64.2657 341.02 69.188Z" fill="#1A8663"/>
<path d="M295.69 82.6123C295.913 87.8329 291.157 91.6365 286.773 91.6365C282.463 91.6365 277.856 87.9075 277.856 82.6869C277.856 77.5409 282.092 73.8119 286.699 73.8119C291.603 73.7374 295.765 77.8392 295.69 82.6123Z" fill="#1A8663"/>
<path d="M465.863 166.067C460.884 166.142 456.946 161.816 456.946 157.192C456.946 152.344 461.553 148.242 465.863 148.242C470.024 148.242 474.706 152.195 474.706 157.117C474.706 162.04 470.545 166.142 465.863 166.067Z" fill="#1A8663"/>
<path d="M414.737 278.011C414.737 272.79 419.344 269.061 423.58 269.136C428.633 269.211 432.572 273.685 432.349 278.16C432.126 282.933 428.93 286.811 423.506 286.886C418.453 286.961 414.811 283.082 414.737 278.011Z" fill="#1A8663"/>
<path d="M341.615 305.083C341.318 310.155 337.751 313.735 332.772 313.735C327.644 313.809 323.929 309.334 323.929 304.86C323.929 300.31 328.239 295.91 332.92 296.059C337.23 296.134 341.689 299.788 341.615 305.083Z" fill="#1A8663"/>
<path d="M398.983 286.364C403.813 286.439 407.9 290.391 407.752 295.313C407.677 300.31 403.888 304.039 398.983 304.039C394.078 304.114 390.289 300.012 390.214 295.313C390.066 290.54 394.227 286.439 398.983 286.364Z" fill="#1A8663"/>
<path d="M271.019 99.7656C270.648 105.359 267.452 108.268 262.325 108.566C260.021 108.715 257.866 107.82 256.157 106.03C254.448 104.315 253.482 102.152 253.407 99.9148C253.333 97.6028 254.373 95.44 256.008 93.7247C257.643 91.9348 259.872 90.8161 262.25 90.9653C267.229 91.3382 270.648 94.2468 271.019 99.7656Z" fill="#1A8663"/>
<path d="M239.957 158.982C239.511 160.996 239.14 163.233 237.282 164.874C235.573 166.514 233.418 167.559 231.188 167.559C228.885 167.559 226.73 166.589 225.021 164.948C223.237 163.233 222.122 160.996 222.271 158.684C222.643 153.687 225.541 150.032 231.04 150.032C236.687 150.107 239.363 153.687 239.957 158.982Z" fill="#1A8663"/>
<path d="M311.965 310.006C306.466 309.558 303.567 306.277 303.345 301.131C303.27 298.819 304.162 296.581 305.945 294.941C307.655 293.374 309.81 292.256 312.113 292.256C314.491 292.33 316.646 293.3 318.355 295.09C319.99 296.805 321.105 298.968 320.882 301.28C320.362 306.277 317.612 309.633 311.965 310.006Z" fill="#1A8663"/>
<path d="M227.77 170.02C229.628 170.393 231.709 170.84 233.418 172.555C235.201 174.345 236.093 176.508 236.242 178.82C236.539 183.22 231.783 187.919 227.324 187.695C222.271 187.397 218.778 184.115 218.778 178.82C218.704 173.749 222.42 170.318 227.77 170.02Z" fill="#1A8663"/>
<path d="M414.811 93.0535C409.387 92.6806 405.82 89.2499 405.968 84.1785C406.117 78.6596 409.609 75.6764 414.663 75.4527C416.669 75.3781 418.75 76.0493 420.31 77.5409C422.168 79.3308 423.506 81.7174 423.357 84.2531C423.283 86.6396 422.242 88.877 420.459 90.6669C418.75 92.2331 416.743 92.6806 414.811 93.0535Z" fill="#1A8663"/>
<path d="M353.653 317.464C348.526 317.091 344.959 313.735 344.959 308.663C344.959 303.666 348.749 299.937 353.727 300.012C358.558 300.012 362.348 303.965 362.273 308.663C362.348 313.66 358.558 317.091 353.653 317.464Z" fill="#1A8663"/>
<path d="M243.524 137.876C243.152 142.947 240.031 146.453 234.904 146.602C230.148 146.751 226.284 142.873 226.21 138.025C226.135 133.55 229.553 129.15 234.83 129.225C240.18 129.374 243.004 132.879 243.524 137.876Z" fill="#1A8663"/>
<path d="M237.133 236.694C242.038 236.694 245.605 240.721 245.679 245.196C245.753 249.969 241.963 253.996 237.133 253.922C232.006 253.847 228.513 250.491 228.513 245.271C228.513 240.423 231.634 236.843 237.133 236.694Z" fill="#1A8663"/>
<path d="M311.593 57.0315C316.721 57.1807 319.842 60.9842 319.767 65.8319C319.619 71.4254 315.309 74.1103 311.296 74.1848C308.918 74.2594 306.763 73.1407 305.054 71.3508C303.419 69.7101 303.196 67.4727 302.676 65.3844C303.642 60.3876 305.797 57.1061 311.593 57.0315Z" fill="#1A8663"/>
<path d="M447.062 269.36C442.009 269.285 438.665 265.407 438.814 260.709C438.888 258.62 439.408 256.607 440.969 255.04C442.752 253.251 445.056 252.132 447.434 252.356C452.71 252.878 455.831 255.786 455.831 261.007C455.831 265.78 452.413 269.509 447.062 269.36Z" fill="#1A8663"/>
<path d="M292.198 289.049C297.251 289.123 300.669 293.002 300.446 297.7C300.372 299.788 299.852 301.802 298.291 303.368C296.508 305.158 294.204 306.277 291.826 306.053C286.624 305.531 283.429 302.697 283.429 297.402C283.355 292.703 286.847 288.9 292.198 289.049Z" fill="#1A8663"/>
<path d="M215.286 199.852C215.063 195.004 218.853 191.349 223.683 191.349C228.81 191.349 232.229 195.451 232.229 199.852C232.229 204.55 228.513 208.279 223.832 208.354C219.447 208.354 215.063 204.998 215.286 199.852Z" fill="#1A8663"/>
<path d="M452.636 103.345C456.574 102.898 461.033 107.447 460.884 111.848C460.81 115.949 456.946 120.2 452.338 120.2C448.028 120.2 443.941 116.024 444.016 111.549C444.09 107.597 448.326 102.749 452.636 103.345Z" fill="#1A8663"/>
<path d="M382.709 312.392C383.155 316.792 378.845 320.894 374.535 320.894C370.373 320.894 366.137 316.867 366.137 312.467C366.137 308.067 369.853 304.039 374.46 304.039C379.291 303.965 383.08 308.141 382.709 312.392Z" fill="#1A8663"/>
<path d="M254.076 278.235C249.32 278.384 245.753 274.655 245.828 269.807C245.902 264.81 249.618 261.529 254.299 261.603C258.906 261.678 262.473 264.96 262.473 269.956C262.399 274.73 258.906 278.459 254.076 278.235Z" fill="#1A8663"/>
<path d="M238.545 108.715C242.261 108.268 247.017 112.593 246.942 117.068C246.868 121.095 242.781 125.421 238.545 125.421C234.309 125.421 230.222 121.021 230.148 117.143C230.074 112.668 234.755 108.193 238.545 108.715Z" fill="#1A8663"/>
<path d="M427.147 87.8329C426.85 84.1785 430.714 79.5546 435.47 79.6292C439.706 79.7037 443.718 83.6564 443.718 87.9821C443.718 92.4568 439.111 96.335 435.321 96.2604C431.234 96.1858 426.775 92.1585 427.147 87.8329Z" fill="#1A8663"/>
<path d="M461.404 136.31C461.181 131.835 465.491 128.18 469.579 128.18C474.112 128.18 477.976 132.581 477.827 136.533C477.753 140.486 474.037 144.663 469.43 144.588C465.566 144.513 461.033 141.083 461.404 136.31Z" fill="#1A8663"/>
<path d="M384.864 55.7637C385.087 60.5368 380.851 63.9674 376.764 64.042C372.008 64.042 368.441 59.8655 368.441 55.9128C368.441 51.9601 372.008 47.7091 376.615 47.7091C380.851 47.6345 384.938 51.2143 384.864 55.7637Z" fill="#1A8663"/>
<path d="M483.623 222.822C483.995 227.371 479.313 231.175 475.598 231.175C471.065 231.25 467.349 226.924 467.201 223.046C467.052 219.317 470.768 214.618 475.375 214.618C479.611 214.618 483.846 218.571 483.623 222.822Z" fill="#1A8663"/>
<path d="M479.462 194.631C483.4 194.407 487.711 198.36 487.488 203.133C487.339 207.086 483.475 211.113 478.942 210.964C474.632 210.815 470.842 206.564 470.991 202.536C471.065 198.584 474.78 194.258 479.462 194.631Z" fill="#1A8663"/>
<path d="M219.893 228.788C215.732 229.012 211.719 225.134 211.793 220.585C211.793 215.961 215.955 212.456 220.042 212.53C224.575 212.53 228.29 216.781 228.216 220.734C228.216 224.463 224.575 229.087 219.893 228.788Z" fill="#1A8663"/>
<path d="M419.641 307.172C415.777 307.246 411.542 303.517 411.616 298.819C411.69 294.419 415.703 290.69 419.939 290.764C424.546 290.839 428.113 295.239 427.964 299.192C427.816 303.294 424.174 307.321 419.641 307.172Z" fill="#1A8663"/>
<path d="M356.031 43.9801C360.713 44.0547 364.131 47.7836 364.057 52.2584C363.982 57.0315 360.193 60.4622 355.734 60.313C351.424 60.1639 347.857 57.1061 347.857 52.1093C347.783 47.6345 351.127 43.9055 356.031 43.9801Z" fill="#1A8663"/>
<path d="M263.142 293.747C262.994 289.571 266.412 285.544 271.242 285.544C275.849 285.544 279.342 289.422 279.342 293.747C279.342 298.52 275.404 301.951 271.242 301.951C267.006 302.026 263.068 298.595 263.142 293.747Z" fill="#1A8663"/>
<path d="M266.189 70.8287C270.796 71.0525 274.14 74.5577 274.066 79.1071C273.992 84.0293 270.127 86.938 265.743 87.1617C263.662 87.2363 261.656 86.1176 260.17 84.5514C258.683 82.9107 257.569 80.9716 257.866 78.6596C258.386 74.334 261.21 70.9033 266.189 70.8287Z" fill="#1A8663"/>
<path d="M490.98 181.952C490.683 186.726 487.042 190.082 482.732 189.932C478.199 189.709 474.78 186.8 474.78 181.878C474.78 177.254 478.199 173.823 482.88 173.823C487.636 173.749 490.832 177.701 490.98 181.952Z" fill="#1A8663"/>
<path d="M443.57 289.944C438.888 289.944 435.395 285.767 435.47 281.815C435.544 277.489 439.185 273.76 443.421 273.685C447.508 273.611 451.521 276.967 451.595 281.74C451.67 286.14 448.103 289.72 443.57 289.944Z" fill="#1A8663"/>
<path d="M397.422 67.6218C392.815 67.3981 389.397 64.1912 389.471 59.4926C389.545 54.7195 392.964 51.438 397.645 51.5872C402.847 51.7364 404.854 55.0179 405.745 59.5672C404.854 64.1166 402.699 67.3235 397.422 67.6218Z" fill="#1A8663"/>
<path d="M282.537 61.8046C282.76 57.1807 286.253 53.8246 290.563 53.75C292.495 53.75 294.353 54.4212 295.839 55.8382C297.548 57.479 298.589 59.5672 298.663 61.8046C298.737 63.8183 297.771 65.8319 296.285 67.3981C294.799 68.9643 292.867 70.0084 290.712 69.9338C286.402 69.7846 282.686 66.6523 282.537 61.8046Z" fill="#1A8663"/>
<path d="M479.834 243.704C479.834 247.881 476.044 251.759 471.808 251.834C467.572 251.834 463.782 248.105 463.782 243.854C463.708 239.677 467.572 235.501 471.734 235.799C476.712 236.097 479.165 238.708 479.834 243.704Z" fill="#1A8663"/>
<path d="M403.219 316.121C403.219 320.149 399.429 324.25 395.342 324.176C393.335 324.101 391.329 323.355 389.768 321.864C388.134 320.298 387.39 318.209 387.316 316.121C387.168 312.019 391.255 308.067 395.267 308.216C400.172 308.365 402.847 311.796 403.219 316.121Z" fill="#1A8663"/>
<path d="M335.818 40.4748C340.203 40.3257 343.695 44.4276 343.695 48.3803C343.695 52.8551 339.757 56.3603 335.893 56.3603C331.657 56.2857 327.942 52.9296 327.942 48.3057C327.942 44.2038 331.36 40.4748 335.818 40.4748Z" fill="#1A8663"/>
<path d="M241.518 88.2058C245.605 88.1312 249.395 91.7111 249.32 95.9621C249.32 97.9012 248.651 99.8402 247.24 101.406C245.679 103.122 243.673 103.868 241.518 103.793C237.356 103.644 233.789 100.959 233.715 96.1113C233.715 91.4873 237.133 88.5787 241.518 88.2058Z" fill="#1A8663"/>
<path d="M225.615 266.078C225.392 262.126 228.959 258.397 233.343 258.397C238.248 258.471 241.072 262.275 241.072 266.153C241.072 270.18 238.248 273.835 233.343 273.835C229.033 273.909 225.318 270.404 225.615 266.078Z" fill="#1A8663"/>
<path d="M329.13 318.135C332.92 317.687 336.859 321.64 336.859 325.742C336.859 330.142 333.069 333.498 329.279 333.498C325.266 333.498 321.625 330.142 321.551 325.817C321.476 321.789 325.043 317.762 329.13 318.135Z" fill="#1A8663"/>
<path d="M418.23 55.7637C422.317 55.5399 425.884 58.8214 425.958 63.2962C425.958 67.3981 422.391 70.9779 418.453 70.9779C413.994 71.0525 410.65 67.3235 410.65 63.2216C410.724 58.9706 413.92 55.6145 418.23 55.7637Z" fill="#1A8663"/>
<path d="M486.522 168.677C482.732 169.125 478.868 165.097 478.942 160.921C479.016 156.595 482.88 153.239 486.745 153.314C490.46 153.388 494.176 156.372 494.176 161.07C494.176 165.247 490.609 169.05 486.522 168.677Z" fill="#1A8663"/>
<path d="M308.918 329.695C304.459 329.62 301.71 326.413 301.487 321.789C301.338 318.06 305.351 314.257 309.438 314.331C312.782 314.406 316.943 318.209 316.869 322.237C316.721 325.593 313.005 330.366 308.918 329.695Z" fill="#1A8663"/>
<path d="M216.177 249.149C212.462 249.745 208.449 245.047 208.523 241.467C208.598 237.962 212.462 233.785 216.252 233.86C219.819 233.934 223.906 237.514 223.906 241.542C223.906 245.345 219.893 249.745 216.177 249.149Z" fill="#1A8663"/>
<path d="M206.443 183.444C202.43 183.891 198.863 179.491 198.863 175.837C198.937 172.108 202.43 168.304 206.74 168.379C210.678 168.454 214.245 172.033 214.171 176.135C214.171 179.566 210.901 183.966 206.443 183.444Z" fill="#1A8663"/>
<path d="M217.738 154.955C218.035 159.429 214.468 162.562 210.307 162.562C206.517 162.636 202.727 159.429 202.727 155.029C202.727 151.002 206.517 147.347 210.233 147.347C214.468 147.347 218.035 151.076 217.738 154.955Z" fill="#1A8663"/>
<path d="M250.286 298.297C246.719 298.744 242.781 294.642 242.781 290.615C242.781 286.811 246.868 282.859 250.658 283.082C254.299 283.306 258.015 286.737 257.94 290.839C257.866 294.419 254.671 298.744 250.286 298.297Z" fill="#1A8663"/>
<path d="M463.708 91.7856C463.782 95.6638 460.215 99.2436 456.128 99.2436C452.19 99.2436 448.623 95.3655 448.623 91.6365C448.623 88.2058 452.19 84.0293 456.426 84.1039C460.215 84.1785 463.931 87.8329 463.708 91.7856Z" fill="#1A8663"/>
<path d="M473.22 107.969C477.381 107.597 480.725 111.773 480.8 115.427C480.8 119.529 477.233 122.96 473.368 123.109C469.876 123.258 465.64 119.455 465.714 115.502C465.64 111.698 469.653 107.522 473.22 107.969Z" fill="#1A8663"/>
<path d="M357.443 329.62C357.889 333.424 354.025 337.078 349.789 337.078C345.851 337.078 342.358 333.275 342.284 329.62C342.209 326.115 345.851 321.864 350.012 321.938C353.876 322.013 357.963 325.817 357.443 329.62Z" fill="#1A8663"/>
<path d="M221.454 134.147C221.825 138.249 217.515 141.754 214.022 141.754C210.53 141.754 206.443 138.1 206.517 134.147C206.591 129.97 210.307 126.54 214.022 126.614C217.887 126.614 221.677 130.045 221.454 134.147Z" fill="#1A8663"/>
<path d="M460.661 264.736C460.364 260.336 464.154 257.278 468.018 257.278C472.18 257.278 475.375 260.41 475.524 264.512C475.672 268.539 472.254 272.194 468.092 272.268C464.005 272.194 460.29 268.539 460.661 264.736Z" fill="#1A8663"/>
<path d="M202.95 188.59C206.294 188.143 210.604 192.468 210.456 196.197C210.307 200.075 206.071 203.73 202.876 203.655C199.16 203.506 195.445 200.075 195.37 195.973C195.37 192.766 198.937 188.217 202.95 188.59Z" fill="#1A8663"/>
<path d="M314.937 52.1838C311.147 52.333 307.506 48.4549 307.655 44.5021C307.803 40.4748 311.147 37.1933 315.086 37.1188C318.281 37.0442 322.517 40.4003 322.517 44.7259C322.517 48.5294 318.281 52.6313 314.937 52.1838Z" fill="#1A8663"/>
<path d="M288.259 325.817C283.949 326.04 280.903 321.938 280.977 318.359C281.051 314.182 284.172 311.05 288.334 310.975C291.826 310.901 295.765 313.958 295.839 318.359C295.839 322.162 292.049 326.189 288.259 325.817Z" fill="#1A8663"/>
<path d="M378.027 333.275C377.804 337.675 374.906 340.509 370.745 340.658C366.881 340.732 363.388 337.376 363.388 333.2C363.388 329.546 366.732 325.817 370.745 325.891C375.055 325.966 377.879 329.247 378.027 333.275Z" fill="#1A8663"/>
<path d="M440.597 309.931C436.139 309.558 433.538 306.948 433.389 302.697C433.315 298.67 436.51 295.388 440.597 295.313C444.461 295.313 447.954 298.67 447.805 302.697C447.731 307.022 444.684 309.633 440.597 309.931Z" fill="#1A8663"/>
<path d="M490.386 132.879C494.176 132.954 497.594 136.31 497.594 140.113C497.668 143.917 494.027 147.646 490.237 147.422C485.853 147.198 483.103 144.364 483.103 140.188C483.103 135.862 485.853 133.252 490.386 132.879Z" fill="#1A8663"/>
<path d="M446.394 66.9506C446.245 70.8288 442.901 74.2594 439.037 74.334C437.105 74.334 435.395 73.439 434.058 72.0966C432.646 70.6796 431.829 68.8897 431.829 67.0252C431.829 65.2353 432.646 63.3708 433.984 61.9538C435.395 60.4622 437.253 59.6418 439.185 59.6418C440.969 59.6418 442.827 60.4622 444.238 61.8792C445.427 63.2216 446.394 65.3844 446.394 66.9506Z" fill="#1A8663"/>
<path d="M416.223 312.541C417.709 312.84 419.419 313.063 420.756 314.406C422.242 315.897 423.283 317.762 423.357 319.85C423.357 321.715 422.391 323.579 421.053 325.071C419.716 326.488 417.932 327.159 416.149 327.084C411.913 327.01 409.015 323.952 408.792 319.999C408.643 316.42 411.616 312.765 416.223 312.541Z" fill="#1A8663"/>
<path d="M225.021 113.19C224.798 117.366 222.048 120.424 217.887 120.499C213.577 120.573 210.678 117.665 210.604 113.488C210.53 109.014 213.279 106.179 217.738 106.105C221.899 106.03 224.575 108.864 225.021 113.19Z" fill="#1A8663"/>
<path d="M277.038 58.0011C276.815 61.8792 273.843 65.1607 269.83 65.3844C266.263 65.6082 262.473 61.8792 262.548 58.1502C262.622 56.3603 263.216 54.645 264.554 53.1534C265.966 51.5872 267.824 50.916 269.756 50.7668C273.248 50.5431 276.964 54.4212 277.038 58.0011Z" fill="#1A8663"/>
<path d="M274.363 314.63C274.512 318.582 271.539 321.64 267.452 321.64C263.588 321.64 260.467 318.582 260.541 314.555C260.616 310.528 263.514 307.694 267.452 307.694C271.614 307.694 274.437 310.453 274.363 314.63Z" fill="#1A8663"/>
<path d="M245.233 82.0903C241.22 82.1649 238.248 79.48 238.174 75.1544C238.099 71.1271 241.518 68.2185 245.01 68.1439C248.949 68.1439 252.218 71.1271 252.07 75.229C252.07 79.48 249.395 82.0903 245.233 82.0903Z" fill="#1A8663"/>
<path d="M199.16 223.792C194.924 223.866 192.398 221.032 192.398 216.856C192.398 212.903 195.073 209.994 199.235 209.92C203.173 209.845 206.294 213.127 206.22 216.93C206.071 221.032 202.95 224.015 199.16 223.792Z" fill="#1A8663"/>
<path d="M471.139 285.618C471.288 289.571 468.39 292.256 464.377 292.33C460.661 292.405 457.392 289.347 457.392 285.469C457.392 281.815 461.033 278.458 464.377 278.533C467.869 278.682 471.511 281.591 471.139 285.618Z" fill="#1A8663"/>
<path d="M506.734 206.564C507.106 209.771 503.687 213.574 499.972 213.35C496.033 213.127 493.284 210.293 493.135 206.34C492.987 202.909 496.628 199.479 500.121 199.628C503.762 199.777 506.957 202.686 506.734 206.564Z" fill="#1A8663"/>
<path d="M301.041 40.9969C301.487 44.2038 297.92 47.8582 294.13 47.7836C290.86 47.7836 287.219 44.353 287.368 40.7732C287.516 37.1188 290.563 33.9864 294.353 34.061C298.068 34.2101 301.264 37.1933 301.041 40.9969Z" fill="#1A8663"/>
<path d="M502.944 226.7C503.167 230.653 499.823 233.412 496.331 233.487C492.615 233.562 489.271 230.056 489.42 226.551C489.643 222.747 492.541 219.913 496.256 219.69C499.675 219.541 503.39 222.971 502.944 226.7Z" fill="#1A8663"/>
<path d="M387.093 34.9559C387.39 38.7595 384.121 41.5935 380.554 41.7427C376.615 41.8173 373.643 38.1629 373.569 35.1051C373.494 31.6744 377.21 28.02 380.48 28.0946C383.675 28.0946 387.539 31.227 387.093 34.9559Z" fill="#1A8663"/>
<path d="M236.464 287.11C236.464 290.69 233.195 293.747 229.554 293.896C226.135 294.046 222.717 290.167 222.865 286.886C223.014 283.232 226.061 280.323 229.628 280.174C233.046 280.099 236.762 283.828 236.464 287.11Z" fill="#1A8663"/>
<path d="M219.299 262.424C219.67 265.929 215.657 269.36 212.388 269.211C208.746 269.061 205.848 266.153 205.7 262.424C205.625 259.366 208.895 255.413 212.611 255.637C216.252 255.786 219.299 258.769 219.299 262.424Z" fill="#1A8663"/>
<path d="M407.9 38.6103C408.123 42.6376 404.482 45.3971 401.138 45.4717C398.166 45.5463 394.227 42.6376 394.376 38.7595C394.524 35.0305 397.348 32.1219 400.989 31.8236C404.259 31.5999 408.346 35.3288 407.9 38.6103Z" fill="#1A8663"/>
<path d="M366.36 31.3761C366.955 34.583 362.496 38.312 359.449 38.1629C356.551 38.0137 352.761 35.1051 352.91 31.1524C353.059 27.7217 355.808 24.4402 359.747 24.5894C363.611 24.7385 366.36 27.4234 366.36 31.3761Z" fill="#1A8663"/>
<path d="M391.552 343.716C387.911 343.939 384.79 340.434 384.79 337.078C384.79 333.424 387.836 330.441 391.478 330.366C394.747 330.291 398.166 333.424 398.24 337.078C398.389 340.36 394.747 344.014 391.552 343.716Z" fill="#1A8663"/>
<path d="M510.375 185.756C510.598 189.112 507.254 192.394 503.613 192.394C500.715 192.394 496.925 189.336 496.999 185.532C496.999 182.549 500.418 178.82 503.91 178.895C507.106 178.895 510.747 182.251 510.375 185.756Z" fill="#1A8663"/>
<path d="M221.379 99.0199C217.366 98.647 214.989 96.4096 214.84 92.3077C214.691 88.7279 217.887 85.7447 221.454 85.5955C224.575 85.4464 228.365 89.2499 228.142 92.4568C227.993 96.0367 224.946 99.0199 221.379 99.0199Z" fill="#1A8663"/>
<path d="M486.001 247.508C485.853 244.301 488.677 240.945 492.541 240.796C496.405 240.647 499.452 244.599 499.377 247.657C499.229 251.237 496.182 254.146 492.541 254.22C488.677 254.295 485.704 250.491 486.001 247.508Z" fill="#1A8663"/>
<path d="M346.148 27.5726C345.925 31.3761 343.027 34.1356 339.385 34.2101C336.19 34.2847 332.623 30.6303 332.846 27.4234C333.069 23.8436 335.818 20.7858 339.534 20.935C343.695 21.0841 345.702 23.3215 346.148 27.5726Z" fill="#1A8663"/>
<path d="M477.01 87.9821C480.725 88.1312 483.475 90.7415 483.549 94.6942C483.623 98.4978 479.834 101.332 476.861 101.332C473.963 101.332 470.173 98.1249 470.322 94.5451C470.47 90.7415 473.666 87.9821 477.01 87.9821Z" fill="#1A8663"/>
<path d="M428.485 42.3393C428.113 45.8446 425.958 48.6786 421.871 48.8278C418.527 48.9769 415.48 45.6954 415.48 42.3393C415.48 38.9832 418.601 35.7763 421.945 35.8509C425.884 36.0746 428.187 39.1324 428.485 42.3393Z" fill="#1A8663"/>
<path d="M494.027 125.57C489.791 125.197 487.785 123.184 487.636 119.156C487.488 115.427 490.46 112.817 494.027 112.743C497.371 112.668 500.566 115.502 500.418 119.156C500.343 122.96 498.04 125.346 494.027 125.57Z" fill="#1A8663"/>
<path d="M246.571 317.389C245.159 317.091 243.598 316.867 242.409 315.674C241.146 314.406 240.329 312.691 240.254 310.975C240.254 309.185 241.146 307.47 242.484 306.128C243.673 304.934 245.159 304.561 246.645 304.487C249.915 304.263 253.11 307.545 253.11 310.901C253.11 314.331 250.063 317.389 246.571 317.389Z" fill="#1A8663"/>
<path d="M201.761 237.962C201.91 241.914 198.046 244.376 195.445 244.226C192.472 244.152 189.054 241.84 189.203 237.663C189.351 233.263 192.175 231.473 195.519 231.473C198.863 231.473 201.761 233.711 201.761 237.962Z" fill="#1A8663"/>
<path d="M459.992 77.168C455.98 76.7951 453.75 74.4832 453.453 70.8287C453.304 69.1134 454.196 67.5472 455.385 66.2794C456.648 64.937 458.358 64.2657 459.918 64.3403C461.553 64.3403 463.188 65.0861 464.451 66.354C465.714 67.6218 466.16 69.2626 466.235 70.8287C466.383 74.1848 463.336 77.0934 459.992 77.168Z" fill="#1A8663"/>
<path d="M513.719 164.65C513.868 168.528 510.821 170.915 507.552 170.915C504.282 170.915 501.235 168.901 501.161 164.799C501.087 161.219 503.91 158.311 507.477 158.311C510.747 158.311 513.645 161.294 513.719 164.65Z" fill="#1A8663"/>
<path d="M331.657 346.699C331.508 350.502 329.205 352.889 325.415 352.964C321.848 353.038 319.173 350.279 319.098 346.699C319.024 343.268 321.922 340.36 325.341 340.36C328.908 340.434 331.583 343.044 331.657 346.699Z" fill="#1A8663"/>
<path d="M185.71 165.992C189.351 165.992 191.803 168.603 192.026 172.182C192.175 175.166 189.054 178.596 185.784 178.447C182.292 178.373 179.691 175.464 179.616 172.332C179.542 168.976 182.44 165.694 185.71 165.992Z" fill="#1A8663"/>
<path d="M311.444 342.97C311.593 346.177 309.215 349.235 305.277 349.16C301.412 349.085 299.257 346.401 299.183 342.97C299.034 339.539 301.858 336.631 305.277 336.556C308.695 336.556 311.816 339.838 311.444 342.97Z" fill="#1A8663"/>
<path d="M442.901 323.579C443.347 326.637 439.706 329.918 436.807 329.769C433.315 329.546 430.862 327.159 430.64 323.654C430.417 320.596 433.761 317.314 436.882 317.389C440.003 317.464 443.272 320.298 442.901 323.579Z" fill="#1A8663"/>
<path d="M189.425 145.259C192.918 144.961 195.593 147.944 195.593 151.3C195.593 154.433 193.438 157.49 189.5 157.49C185.859 157.49 183.406 155.104 183.406 151.449C183.332 147.422 186.379 145.035 189.425 145.259Z" fill="#1A8663"/>
<path d="M494.993 268.39C495.365 271.373 492.095 274.58 488.825 274.506C485.481 274.431 482.657 271.97 482.657 268.465C482.657 264.96 485.407 262.424 488.825 262.349C492.095 262.126 495.365 265.482 494.993 268.39Z" fill="#1A8663"/>
<path d="M346.148 356.543C342.952 356.916 340.054 353.411 340.129 350.353C340.203 347.37 342.729 344.163 346.296 344.312C349.715 344.461 352.316 346.997 352.316 350.502C352.316 353.784 349.492 356.543 346.148 356.543Z" fill="#1A8663"/>
<path d="M254.968 54.4958C254.968 57.7773 252.07 60.5368 248.726 60.4622C245.382 60.3876 242.93 57.7027 242.855 54.1229C242.781 50.7668 245.902 48.2311 249.023 48.2311C251.773 48.2311 255.414 51.0651 254.968 54.4958Z" fill="#1A8663"/>
<path d="M466.532 306.5C466.829 309.484 464.005 312.541 460.587 312.541C457.094 312.616 454.493 309.185 454.642 306.277C454.791 302.846 457.243 300.459 460.736 300.31C463.782 300.161 466.978 303.517 466.532 306.5Z" fill="#1A8663"/>
<path d="M284.618 345.133C281.571 345.356 278.599 342.672 278.525 339.241C278.45 335.736 281.794 333.2 284.618 333.275C288.036 333.349 290.563 335.885 290.712 339.241C290.786 342.448 287.442 345.506 284.618 345.133Z" fill="#1A8663"/>
<path d="M324.598 23.6944C324.598 27.3488 322.22 29.5862 318.727 29.8099C315.309 30.0337 312.633 26.5284 312.633 23.769C312.633 20.7858 315.086 17.5789 318.578 17.6535C322.294 17.8772 324.598 20.1146 324.598 23.6944Z" fill="#1A8663"/>
<path d="M192.992 136.459C189.648 136.384 187.27 133.774 187.196 130.269C187.196 127.36 189.648 124.302 193.364 124.377C196.485 124.452 199.16 126.987 199.16 130.567C199.235 133.625 196.113 136.832 192.992 136.459Z" fill="#1A8663"/>
<path d="M279.268 37.1933C279.565 39.9528 276.667 43.2343 273.397 43.2343C270.053 43.2343 267.378 39.8782 267.452 37.1933C267.601 34.061 269.979 31.1524 273.397 31.1524C276.815 31.227 279.342 33.9864 279.268 37.1933Z" fill="#1A8663"/>
<path d="M182.069 186.427C184.67 186.203 187.939 188.814 188.014 192.17C188.088 195.75 184.521 198.285 182.069 198.211C179.096 198.062 176.124 195.824 176.124 192.394C176.124 188.888 179.022 186.427 182.069 186.427Z" fill="#1A8663"/>
<path d="M412.359 334.766C415.777 335.064 418.007 337.153 418.155 340.732C418.304 344.238 415.109 346.699 412.285 346.624C409.461 346.55 406.414 344.312 406.563 340.658C406.711 337.078 408.941 335.064 412.359 334.766Z" fill="#1A8663"/>
<path d="M505.322 144.364C505.322 140.859 508.146 137.95 511.044 137.95C513.942 137.95 516.989 140.934 516.989 143.842C516.989 146.602 513.719 149.958 511.044 149.809C509.484 149.734 508.146 148.914 507.031 147.87C505.917 146.825 505.397 145.334 505.322 144.364Z" fill="#1A8663"/>
<path d="M526.65 209.472C526.501 212.679 523.9 215.364 520.779 215.215C517.509 215.066 515.131 212.978 515.057 209.472C514.983 205.967 517.881 203.73 520.928 203.655C523.9 203.73 526.575 206.415 526.65 209.472Z" fill="#1A8663"/>
<path d="M225.169 77.2426C221.677 76.8697 219.67 75.0052 219.447 71.5C219.299 68.4422 222.122 65.6828 225.095 65.6828C228.142 65.6828 230.965 68.5168 230.965 71.5745C230.891 74.5577 228.216 77.2426 225.169 77.2426Z" fill="#1A8663"/>
<path d="M389.917 14.1482C389.843 17.0568 386.87 19.9654 384.121 19.9654C381.446 19.9654 378.25 16.7585 378.324 14.0736C378.324 11.3142 381.446 8.25643 384.269 8.33101C387.093 8.33101 389.991 11.2396 389.917 14.1482Z" fill="#1A8663"/>
<path d="M448.549 46.0683C448.326 49.2007 446.171 51.8855 442.901 51.8855C439.706 51.9601 437.179 49.499 437.179 46.1429C437.179 42.936 439.111 40.5494 442.752 40.2511C445.65 40.1765 448.474 43.0851 448.549 46.0683Z" fill="#1A8663"/>
<path d="M361.307 354.231C361.233 351.174 363.982 348.414 367.029 348.414C370.002 348.414 372.751 351.174 372.751 354.157C372.751 357.14 369.927 360.049 367.104 360.049C364.28 360.049 361.382 357.14 361.307 354.231Z" fill="#1A8663"/>
<path d="M479.313 289.273C479.313 286.513 482.36 283.455 485.11 283.381C487.785 283.381 491.055 286.513 490.906 289.198C490.757 292.181 488.528 295.09 485.035 294.941C481.691 294.866 479.759 292.703 479.313 289.273Z" fill="#1A8663"/>
<path d="M208.746 277.489C211.942 277.638 214.394 280.323 214.543 283.232C214.617 286.14 211.793 289.049 208.821 289.049C205.997 289.049 203.024 286.588 203.024 283.306C203.099 280.174 205.477 277.862 208.746 277.489Z" fill="#1A8663"/>
<path d="M522.785 230.28C522.711 233.636 520.185 236.023 517.138 236.097C514.165 236.172 511.416 233.412 511.416 230.355C511.342 227.297 514.388 224.687 516.989 224.612C519.441 224.537 522.711 226.775 522.785 230.28Z" fill="#1A8663"/>
<path d="M269.533 335.437C269.607 338.421 267.081 341.105 263.96 341.105C262.548 341.105 261.21 340.807 260.021 339.763C258.758 338.644 258.163 337.004 258.089 335.587C258.015 334.244 258.609 332.752 259.724 331.634C260.913 330.44 262.325 329.918 263.811 329.844C266.783 329.695 269.459 332.454 269.533 335.437Z" fill="#1A8663"/>
<path d="M363.239 15.9381C360.118 16.0127 357.666 13.3278 357.815 10.2701C357.889 7.13774 359.97 4.67661 363.388 4.75119C366.435 4.82577 369.11 7.43606 368.887 10.3447C368.738 13.1787 366.732 16.0873 363.239 15.9381Z" fill="#1A8663"/>
<path d="M202.579 109.536C202.356 112.892 200.275 115.129 196.857 115.204C194.033 115.278 190.986 112.37 191.209 109.536C191.432 106.627 193.513 103.718 197.005 103.793C199.903 103.942 202.504 106.18 202.579 109.536Z" fill="#1A8663"/>
<path d="M191.655 253.325C194.256 253.101 197.228 255.04 197.154 258.62C197.154 262.051 194.776 263.99 191.729 264.065C188.608 264.139 186.304 261.753 186.23 258.769C186.156 255.488 188.98 253.101 191.655 253.325Z" fill="#1A8663"/>
<path d="M183.778 213.201C184.001 216.184 181.623 218.571 178.427 218.646C175.232 218.795 172.928 215.812 172.854 213.276C172.705 210.218 175.752 207.757 178.279 207.757C181.028 207.832 184.075 209.92 183.778 213.201Z" fill="#1A8663"/>
<path d="M231.188 307.246C231.263 310.08 229.256 312.765 225.764 312.616C222.717 312.467 220.562 310.528 220.488 307.172C220.413 303.517 223.088 301.876 225.987 301.802C229.331 301.802 231.411 304.263 231.188 307.246Z" fill="#1A8663"/>
<path d="M303.27 20.1146C303.27 23.1724 300.967 25.4098 297.92 25.4098C294.724 25.4098 292.644 23.1724 292.644 19.8909C292.644 16.8331 294.947 14.5957 298.068 14.6703C300.967 14.6703 303.27 17.1314 303.27 20.1146Z" fill="#1A8663"/>
<path d="M451.67 327.308C451.521 324.176 453.825 322.013 456.871 321.938C460.215 321.864 462.148 324.549 462.222 327.234C462.296 330.217 459.844 332.678 456.946 332.603C454.196 332.603 451.447 330.59 451.67 327.308Z" fill="#1A8663"/>
<path d="M480.651 69.3372C483.178 68.8897 486.15 71.9474 486.076 74.6323C486.001 76.9443 483.326 80.002 480.725 79.9275C477.976 79.8529 475.152 77.2426 475.301 74.6323C475.449 71.4254 477.456 69.3372 480.651 69.3372Z" fill="#1A8663"/>
<path d="M247.388 33.4644C246.942 30.6303 250.212 27.9455 252.664 28.0946C255.562 28.2438 257.792 30.4066 257.866 33.3898C257.866 36.5967 255.785 38.6103 252.664 38.7595C249.766 38.9087 247.091 36.2238 247.388 33.4644Z" fill="#1A8663"/>
<path d="M497.891 103.495C495.588 103.718 492.615 101.481 492.541 98.4978C492.541 95.3655 495.216 93.2026 497.743 93.1281C500.269 92.9789 502.87 95.44 502.944 98.2741C503.019 101.183 500.195 103.793 497.891 103.495Z" fill="#1A8663"/>
<path d="M529.548 189.336C529.548 192.021 527.021 194.631 524.42 194.631C521.894 194.631 519.293 191.872 519.218 189.336C519.144 186.651 522.34 183.966 524.42 184.041C527.17 184.115 529.548 186.576 529.548 189.336Z" fill="#1A8663"/>
<path d="M438.294 344.387C438.442 347.594 435.47 349.533 433.24 349.607C430.565 349.682 428.113 347.445 428.039 344.461C427.964 341.627 430.342 339.241 433.092 339.241C435.395 339.315 438.368 341.329 438.294 344.387Z" fill="#1A8663"/>
<path d="M387.836 363.032C385.012 363.256 382.56 360.123 382.56 357.886C382.635 355.499 385.012 352.665 387.762 352.665C389.991 352.665 393.038 354.977 392.964 357.811C392.964 360.645 390.66 362.957 387.836 363.032Z" fill="#1A8663"/>
<path d="M404.928 22.874C402.327 22.7995 399.8 20.6367 399.8 17.8026C399.875 14.8194 402.178 12.7312 405.002 12.6566C407.529 12.5821 410.204 15.2669 410.055 17.8026C409.832 20.4129 407.975 22.7249 404.928 22.874Z" fill="#1A8663"/>
<path d="M205.774 88.5787C205.551 91.3382 203.693 93.501 200.721 93.6501C198.194 93.7993 195.593 91.1144 195.593 88.5787C195.593 86.1176 198.12 83.5819 200.646 83.5073C203.024 83.5073 205.7 86.043 205.774 88.5787Z" fill="#1A8663"/>
<path d="M519.144 122.96C518.847 125.943 516.841 127.957 514.017 128.031C511.49 128.106 508.964 125.346 509.038 122.811C509.112 120.275 511.639 117.739 514.091 117.739C516.618 117.814 519.144 120.424 519.144 122.96Z" fill="#1A8663"/>
<path d="M179.691 234.233C179.616 236.545 176.941 239.304 174.638 239.304C172.26 239.304 169.51 236.47 169.584 234.009C169.659 231.473 172.334 228.639 174.712 228.938C177.536 229.236 179.616 231.324 179.691 234.233Z" fill="#1A8663"/>
<path d="M237.951 331.783C237.951 329.173 240.403 326.637 243.004 326.637C245.456 326.637 248.131 329.247 248.057 331.783C248.057 334.468 245.605 336.854 242.93 336.78C240.254 336.705 237.951 334.393 237.951 331.783Z" fill="#1A8663"/>
<path d="M468.315 50.0956C468.538 52.6313 465.863 54.7196 463.262 54.5704C460.661 54.4212 458.804 52.7059 458.952 49.7973C459.026 46.8887 460.587 45.1734 463.559 45.0988C466.309 45.0242 468.613 47.4853 468.315 50.0956Z" fill="#1A8663"/>
<path d="M227.919 55.167C225.541 55.3908 223.311 53.1534 223.534 50.3193C223.757 47.7091 225.689 45.8446 228.365 45.8446C230.445 45.8446 232.898 47.9328 232.823 50.7668C232.749 53.5263 230.297 55.4653 227.919 55.167Z" fill="#1A8663"/>
<path d="M342.506 2.06632C345.107 1.768 347.114 4.22913 347.188 6.46652C347.262 9.00223 345.033 11.3888 342.581 11.3888C340.277 11.3888 337.899 8.92765 337.899 6.69026C337.751 4.15455 340.203 1.768 342.506 2.06632Z" fill="#1A8663"/>
<path d="M517.881 251.312C517.881 253.996 516.097 255.563 513.274 255.786C510.821 255.935 508.592 253.549 508.815 251.237C508.964 248.477 510.747 246.613 513.497 246.688C516.023 246.688 517.881 248.701 517.881 251.312Z" fill="#1A8663"/>
<path d="M523.083 168.454C522.86 165.918 525.163 163.979 527.467 163.979C529.919 164.053 531.926 165.918 532 168.454C532 170.393 530.068 173.003 527.541 172.928C525.015 172.854 523.083 170.989 523.083 168.454Z" fill="#1A8663"/>
<path d="M425.735 17.1314C428.41 17.4297 429.896 18.8467 430.045 21.5316C430.119 23.9182 428.039 25.9318 425.661 25.9318C423.431 25.9318 421.202 23.6944 421.276 21.457C421.351 19.1451 423.357 17.1314 425.735 17.1314Z" fill="#1A8663"/>
<path d="M509.112 276.818C506.809 276.743 505.322 275.326 505.025 272.567C504.802 270.628 505.991 268.316 507.626 267.794C510.301 266.973 512.902 267.794 513.868 269.658C514.091 270.106 514.091 270.255 513.794 270.702C513.274 271.523 512.902 272.343 512.159 273.014C511.713 273.462 511.193 274.357 511.044 275.252C510.821 276.37 510.078 276.818 509.112 276.818Z" fill="#1A8663"/>
<path d="M322.517 8.18185C319.321 8.33101 317.315 5.27325 318.207 2.06632C318.504 0.947627 318.95 0.723888 320.139 0.723888C320.956 0.723888 321.774 0.723888 322.591 0.723888C323.037 0.723888 323.483 0.723888 323.854 0.35099C324.449 -0.245648 325.118 -0.0219087 325.638 0.574728C326.901 1.91716 327.198 3.48333 326.678 5.19867C326.084 7.06316 324.523 8.10727 322.517 8.18185Z" fill="#1A8663"/>
<path d="M281.571 16.9823C281.646 18.9959 279.342 21.457 277.261 21.3824C274.586 21.3079 273.248 19.6671 272.877 17.206C272.728 16.0127 273.323 15.0432 273.992 14.1482C274.809 13.0295 276.221 13.0295 277.261 12.8058C279.119 12.4329 281.497 14.9686 281.571 16.9823Z" fill="#1A8663"/>
<path d="M177.61 126.838C177.61 129.97 174.415 132.581 171.368 131.984C170.625 131.835 170.327 131.238 169.733 130.94C169.584 130.865 169.584 130.567 169.733 130.492C170.327 130.194 170.03 129.523 170.253 129.15C170.848 128.106 170.922 126.913 171.368 125.794C171.739 124.75 172.334 123.706 172.408 122.587C172.483 121.394 173.003 121.095 174.117 121.617C175.901 122.289 177.907 124.899 177.61 126.838Z" fill="#1A8663"/>
<path d="M162.005 170.318C162.079 169.647 161.93 168.976 162.525 168.379C163.045 167.782 162.748 166.738 162.748 165.918C162.822 164.202 162.971 164.128 164.68 163.904C166.835 163.68 168.098 164.874 169.213 166.365C169.882 167.186 169.51 169.796 168.916 170.765C167.875 172.406 166.538 173.227 164.531 173.003C162.451 172.854 162.005 172.481 162.005 170.318Z" fill="#1A8663"/>
<path d="M301.784 359.303C303.716 359.079 304.831 360.422 305.797 361.913C306.54 363.106 306.168 365.791 305.128 366.761C304.831 367.059 304.385 367.879 303.79 366.985C303.567 366.686 303.122 366.835 302.75 366.835C302.007 366.835 301.264 366.985 300.669 366.239C300.446 366.015 299.778 366.09 299.332 366.09C297.697 366.015 297.177 365.493 297.177 363.852C297.102 361.391 299.109 359.303 301.784 359.303Z" fill="#1A8663"/>
<path d="M210.381 304.188C210.456 306.053 209.489 307.321 208.152 308.365C207.78 308.663 207.557 308.589 207.26 308.216C206.22 306.948 204.734 306.128 204.139 304.412C203.842 303.592 202.801 302.995 202.133 302.249C201.167 301.205 201.241 300.385 202.356 299.714C204.065 298.744 205.774 298.52 207.557 299.565C209.267 300.683 210.307 302.1 210.381 304.188Z" fill="#1A8663"/>
<path d="M481.394 314.182C478.719 314.108 477.53 312.392 477.307 310.155C477.084 308.216 479.536 305.829 481.394 305.829C483.326 305.829 485.704 308.29 485.556 310.155C485.407 311.945 483.772 314.257 481.394 314.182Z" fill="#1A8663"/>
<path d="M342.581 371.981C341.169 371.981 339.757 371.981 338.271 371.981C337.528 371.981 337.23 371.758 337.23 370.937C337.082 368.402 339.534 366.313 341.466 366.09C344.141 365.717 346.148 366.686 347.411 369.147C347.411 369.222 347.485 369.222 347.485 369.296C347.708 370.042 347.931 370.863 347.634 371.534C347.337 372.28 346.519 371.907 345.851 371.907C344.81 372.056 343.695 371.981 342.581 371.981Z" fill="#1A8663"/>
<path d="M322.071 363.628C324.226 363.405 325.266 364.523 326.158 365.791C326.827 366.835 326.455 369.371 325.638 370.117C325.118 370.639 324.672 371.459 323.483 370.639C322.888 370.191 321.774 370.564 320.882 370.49C319.321 370.49 319.024 370.191 318.653 368.551C318.355 366.91 318.653 365.642 319.842 364.374C320.733 363.628 321.551 363.778 322.071 363.628Z" fill="#1A8663"/>
<path d="M168.841 143.693C171.071 143.768 172.334 144.961 172.408 147.198C172.483 148.69 172.26 149.958 170.922 150.927C169.287 152.046 166.166 151.524 165.349 149.734C164.977 149.063 164.828 148.168 165.423 147.571C165.869 147.124 165.795 146.751 165.795 146.303C165.869 144.364 166.389 143.842 168.321 143.693C168.47 143.693 168.693 143.693 168.841 143.693Z" fill="#1A8663"/>
<path d="M189.871 284.052C188.608 282.784 187.939 281.442 187.196 280.025C186.676 279.13 185.933 278.235 185.338 277.265C184.818 276.445 185.115 275.624 186.007 275.252C188.088 274.357 191.06 275.326 192.249 277.265C193.29 278.906 192.769 281.889 191.135 283.008C190.689 283.306 190.317 283.679 189.871 284.052Z" fill="#1A8663"/>
<path d="M208.672 67.771C208.523 69.2626 207.929 70.605 206.591 71.4254C205.179 72.3203 203.693 72.3203 202.207 71.4254C201.39 70.9779 201.241 70.1575 201.761 69.3372C201.835 69.188 201.984 69.0388 202.133 68.9643C203.47 67.6218 204.436 65.9065 205.774 64.4895C206.22 64.042 206.517 63.8928 206.889 64.2657C207.78 65.2353 208.523 66.354 208.672 67.771Z" fill="#1A8663"/>
<path d="M405.745 363.032C404.11 363.106 404.185 363.106 404.11 361.764C403.962 359.527 405.448 357.96 407.38 357.364C409.535 356.693 411.839 357.811 412.731 359.75C413.028 360.272 413.176 360.645 412.21 361.018C410.798 361.615 409.387 362.137 407.9 362.361C407.083 362.435 406.563 363.628 405.745 363.032Z" fill="#1A8663"/>
<path d="M162.376 194.333C161.93 193.885 162.005 193.363 162.005 192.916C162.005 190.529 162.005 188.143 162.005 185.831C162.005 184.19 162.302 184.115 163.639 184.936C165.2 185.831 166.389 187.248 166.463 189.261C166.538 191.275 165.497 192.692 163.862 193.736C163.417 193.885 162.896 194.034 162.376 194.333Z" fill="#1A8663"/>
<path d="M276.592 358.333C278.525 354.828 283.132 354.604 285.138 358.035C285.658 358.93 285.658 360.123 285.436 361.167C285.213 361.913 284.395 361.839 284.172 361.54C283.28 360.645 282.017 360.944 281.051 360.272C279.714 359.303 278.004 359.154 276.592 358.333Z" fill="#1A8663"/>
<path d="M502.721 82.4632C500.195 83.4327 498.114 82.8361 496.777 80.6733C495.959 79.3308 495.959 76.646 496.925 75.5273C497.52 74.8561 498.188 74.9306 498.411 75.751C498.56 76.2731 498.857 76.4968 499.154 76.7951C499.823 77.5409 500.418 78.3613 500.864 79.2563C501.458 80.3749 502.35 81.2699 502.721 82.4632Z" fill="#1A8663"/>
<path d="M530.588 150.032C530.514 150.48 530.811 151.226 530.217 151.449C529.548 151.673 529.028 151.375 528.507 150.853C526.724 149.287 526.501 146.453 528.062 144.663C528.284 144.439 528.507 144.141 528.953 144.364C529.325 144.588 529.696 144.663 529.622 145.185C529.622 145.856 529.622 146.453 529.622 147.124C529.622 147.422 529.622 147.87 529.771 147.944C530.811 148.392 530.514 149.287 530.588 150.032Z" fill="#1A8663"/>
<path d="M447.88 27.9455C447.805 28.3929 446.839 28.9896 446.319 28.8404C444.907 28.3929 443.644 27.7217 443.124 26.1555C443.05 25.9318 442.901 25.7081 443.198 25.5589C443.495 25.4098 443.867 25.2606 444.016 25.4843C444.907 26.6776 446.319 27.0505 447.583 27.5726C447.805 27.6471 447.88 27.7963 447.88 27.9455Z" fill="#1A8663"/>
<path d="M176.049 254.966C175.975 255.413 175.975 255.786 175.604 255.712C175.306 255.712 174.712 255.712 174.786 255.264C175.009 254.22 174.117 253.549 174.043 252.654C174.043 252.281 173.894 252.057 173.449 251.908C172.928 251.684 173.003 251.237 173.3 250.864C173.671 250.417 173.82 250.864 174.117 251.088C175.604 251.983 175.529 253.698 176.049 254.966Z" fill="#1A8663"/>
<path d="M226.284 327.159C225.243 325.966 223.98 325.22 222.643 324.4C222.345 324.25 222.122 324.101 222.271 323.728C222.345 323.505 222.643 323.505 222.865 323.505C224.426 323.43 226.284 325.294 226.284 327.159Z" fill="#1A8663"/>
<path d="M361.307 371.459C362.199 371.086 363.091 370.788 364.057 371.086C364.354 371.161 364.651 371.236 364.577 371.608C364.577 371.907 364.28 371.907 364.057 371.907C363.165 371.907 362.273 371.907 361.307 371.907C361.382 371.832 361.307 371.608 361.307 371.459Z" fill="#1A8663"/>
<path d="M178.65 108.417C178.502 107.224 179.319 106.329 179.319 104.837C180.062 106.702 180.062 107 178.65 108.417Z" fill="#1A8663"/>
<path d="M303.047 4.67661C302.453 5.04951 301.784 5.04951 300.892 4.90035C301.635 4.00539 302.378 4.45287 303.047 4.67661Z" fill="#1A8663"/>
<path d="M502.127 290.168C502.127 290.466 502.053 290.69 501.755 290.69C501.458 290.69 501.384 290.466 501.384 290.242C501.458 289.944 501.532 289.571 501.904 289.645C502.127 289.645 502.127 289.944 502.127 290.168Z" fill="#1A8663"/>
<path d="M61.1872 312.094C61.1872 312.832 60.8942 313.539 60.3726 314.061C59.851 314.582 59.1436 314.875 58.406 314.875H8.34345C7.60582 314.875 6.8984 314.582 6.37681 314.061C5.85523 313.539 5.5622 312.832 5.5622 312.094C5.5622 311.356 5.85523 310.649 6.37681 310.127C6.8984 309.606 7.60582 309.313 8.34345 309.313H58.406C59.1436 309.313 59.851 309.606 60.3726 310.127C60.8942 310.649 61.1872 311.356 61.1872 312.094ZM86.1698 269.384C86.097 269.771 85.9428 270.139 85.7175 270.462C85.4921 270.785 85.2007 271.056 84.8626 271.258L33.6146 301.852C31.4784 303.105 29.0475 303.767 26.5711 303.771C23.0434 303.767 19.6507 302.415 17.087 299.992L17.0453 299.95L4.51923 287.688C3.8565 287.059 3.35904 286.276 3.07086 285.409C2.78268 284.541 2.71266 283.617 2.86698 282.716C3.0213 281.815 3.39521 280.966 3.95565 280.244C4.51608 279.522 5.24578 278.949 6.08021 278.576L7.12318 278.065C7.78183 277.742 8.54159 277.692 9.23693 277.926L19.0617 281.243L26.0739 277.002L18.4846 269.635C17.8021 269.006 17.2877 268.216 16.9884 267.338C16.689 266.459 16.6142 265.52 16.7708 264.605C16.9273 263.691 17.3102 262.83 17.8846 262.101C18.4591 261.372 19.2067 260.798 20.0595 260.432L20.1707 260.387L22.6565 259.445C23.2832 259.211 23.9731 259.211 24.5999 259.445L43.3524 266.335L61.2811 255.635C64.1382 253.934 67.5118 253.319 70.7852 253.901C74.0587 254.483 77.0133 256.224 79.1089 258.805L79.1506 258.857L85.6309 267.163C85.873 267.474 86.0462 267.833 86.1391 268.216C86.232 268.599 86.2425 268.997 86.1698 269.384ZM79.307 268.098L74.7875 262.303C73.5296 260.764 71.7613 259.727 69.8041 259.381C67.8468 259.036 65.8305 259.404 64.1214 260.418L45.0699 271.794C44.713 272.005 44.3137 272.135 43.9007 272.173C43.4876 272.212 43.0712 272.158 42.6815 272.016L23.6403 265.014L22.2497 265.546L22.3227 265.616L32.5299 275.52C32.8347 275.817 33.0676 276.179 33.2107 276.579C33.3537 276.979 33.4032 277.407 33.3552 277.829C33.3072 278.252 33.163 278.657 32.9338 279.015C32.7045 279.373 32.3963 279.674 32.0327 279.894L20.8347 286.67C20.4883 286.879 20.1004 287.01 19.6981 287.054C19.2958 287.098 18.8888 287.053 18.5054 286.924L8.53814 283.562L8.47209 283.597L8.34345 283.656C8.3602 283.668 8.37538 283.682 8.38865 283.697L20.9043 295.956C22.2104 297.183 23.8791 297.954 25.6604 298.154C27.4416 298.353 29.2395 297.97 30.7847 297.061L79.307 268.098Z" fill="#1A8663"/>
</svg>
