<svg width="448" height="267" viewBox="0 0 448 267" fill="none" xmlns="http://www.w3.org/2000/svg">
<path d="M316 266.5C316 215.966 275.034 175 224.5 175C173.966 175 133 215.966 133 266.5" stroke="#1A8663" stroke-width="3"/>
<path d="M383 266.5C383 178.963 312.037 108 224.5 108C136.963 108 66 178.963 66 266.5" stroke="#1A8663" stroke-width="3"/>
<path d="M446 266C446 143.393 346.607 44 224 44C101.393 44 2 143.393 2 266" stroke="#1A8663" stroke-width="3"/>
<circle cx="57" cy="125" r="50" fill="#1A8663"/>
<path d="M71.8033 114.144C71.636 113.158 71.1661 112.248 70.4588 111.541C69.7515 110.833 68.8418 110.363 67.8556 110.196C63.1139 109.392 54.1754 109.024 47.6012 115.601C41.0269 122.179 41.3917 131.114 42.1959 135.856C42.3636 136.843 42.8346 137.754 43.5433 138.461C44.252 139.168 45.1634 139.638 46.151 139.804C47.8123 140.087 49.4944 140.231 51.1798 140.234C55.8805 140.234 61.734 139.062 66.398 134.398C72.9737 127.824 72.6075 118.886 71.8033 114.144ZM62.7784 112.093C64.3496 112.099 65.9176 112.236 67.4659 112.503C67.973 112.59 68.4405 112.832 68.804 113.196C69.1675 113.56 69.4088 114.028 69.4947 114.535C69.7969 116.287 69.9294 118.064 69.8902 119.841L62.1573 112.109C62.3624 112.098 62.566 112.095 62.7784 112.095V112.093ZM46.5348 137.495C46.0277 137.409 45.5599 137.167 45.1962 136.803C44.8324 136.44 44.5907 135.972 44.5045 135.465C44.2023 133.713 44.0698 131.936 44.109 130.159L51.8404 137.891C50.0632 137.93 48.2864 137.798 46.5348 137.495ZM64.7428 132.743C63.0421 134.442 59.8692 136.805 54.8741 137.617L44.3829 127.125C45.1944 122.13 47.5572 118.957 49.2564 117.257C50.9557 115.556 54.1285 113.193 59.1236 112.382L69.6163 122.874C68.8048 127.87 66.442 131.042 64.7428 132.743ZM62.5133 119.486C62.7329 119.706 62.8562 120.004 62.8562 120.315C62.8562 120.625 62.7329 120.923 62.5133 121.143L60.4127 123.242L61.3414 124.171C61.4572 124.278 61.5502 124.407 61.6147 124.551C61.6793 124.695 61.7142 124.851 61.7172 125.008C61.7202 125.166 61.6913 125.323 61.6323 125.469C61.5733 125.616 61.4854 125.748 61.3738 125.86C61.2622 125.971 61.1292 126.059 60.9829 126.118C60.8365 126.177 60.6797 126.206 60.522 126.203C60.3643 126.199 60.2088 126.164 60.0649 126.1C59.921 126.035 59.7917 125.942 59.6847 125.826L58.7574 124.899L56.8985 126.758L57.8272 127.686C57.9431 127.793 58.0362 127.923 58.1009 128.067C58.1656 128.211 58.2006 128.366 58.2038 128.524C58.2069 128.681 58.1782 128.838 58.1193 128.985C58.0605 129.131 57.9726 129.264 57.8611 129.376C57.7496 129.487 57.6167 129.575 57.4704 129.634C57.3241 129.693 57.1674 129.722 57.0097 129.719C56.8519 129.716 56.6964 129.681 56.5525 129.616C56.4085 129.552 56.2791 129.459 56.172 129.343L55.2418 128.413L53.1412 130.514C53.0335 130.627 52.9041 130.718 52.7608 130.78C52.6174 130.843 52.463 130.876 52.3066 130.878C52.1502 130.88 51.995 130.851 51.8501 130.792C51.7052 130.733 51.5736 130.646 51.463 130.535C51.3524 130.424 51.265 130.293 51.2061 130.148C51.1472 130.003 51.1178 129.848 51.1198 129.691C51.1218 129.535 51.1551 129.381 51.2178 129.237C51.2804 129.094 51.3711 128.965 51.4845 128.857L53.5865 126.758L52.6578 125.829C52.4523 125.607 52.3409 125.313 52.347 125.01C52.3531 124.708 52.4762 124.419 52.6904 124.205C52.9046 123.991 53.1934 123.868 53.4962 123.862C53.799 123.856 54.0923 123.968 54.3145 124.174L55.2433 125.102L57.1007 123.242L56.172 122.313C55.9663 122.091 55.8547 121.798 55.8605 121.495C55.8663 121.192 55.9891 120.903 56.2031 120.689C56.4172 120.475 56.7058 120.352 57.0086 120.346C57.3114 120.34 57.6048 120.451 57.8272 120.657L58.7574 121.587L60.858 119.486C61.0777 119.267 61.3753 119.144 61.6856 119.144C61.9959 119.144 62.2936 119.267 62.5133 119.486Z" fill="#004D35" fill-opacity="0.8"/>
<circle cx="392" cy="125" r="50" fill="#1A8663"/>
<path d="M397.273 117.969C398.085 117.969 398.878 117.728 399.552 117.278C400.227 116.827 400.752 116.186 401.063 115.437C401.373 114.687 401.454 113.863 401.296 113.067C401.138 112.271 400.747 111.541 400.174 110.967C399.6 110.393 398.869 110.003 398.074 109.844C397.278 109.686 396.453 109.767 395.704 110.078C394.954 110.388 394.314 110.914 393.863 111.588C393.412 112.263 393.172 113.056 393.172 113.867C393.172 114.955 393.604 115.998 394.373 116.767C395.142 117.537 396.186 117.969 397.273 117.969ZM397.273 112.109C397.621 112.109 397.961 112.212 398.25 112.406C398.539 112.599 398.764 112.873 398.897 113.195C399.03 113.516 399.065 113.869 398.997 114.21C398.93 114.551 398.762 114.864 398.516 115.11C398.271 115.356 397.957 115.523 397.616 115.591C397.275 115.659 396.922 115.624 396.601 115.491C396.28 115.358 396.005 115.133 395.812 114.844C395.619 114.555 395.516 114.215 395.516 113.867C395.516 113.401 395.701 112.954 396.03 112.624C396.36 112.295 396.807 112.109 397.273 112.109ZM402.547 126.172C401.388 126.172 400.255 126.516 399.292 127.159C398.328 127.803 397.577 128.718 397.134 129.789C396.69 130.86 396.574 132.038 396.8 133.174C397.026 134.311 397.584 135.355 398.404 136.174C399.223 136.994 400.267 137.552 401.404 137.778C402.54 138.004 403.719 137.888 404.789 137.445C405.86 137.001 406.775 136.25 407.419 135.287C408.063 134.323 408.406 133.19 408.406 132.031C408.406 130.477 407.789 128.987 406.69 127.888C405.591 126.789 404.101 126.172 402.547 126.172ZM402.547 135.547C401.852 135.547 401.172 135.341 400.594 134.954C400.016 134.568 399.565 134.019 399.299 133.377C399.033 132.734 398.963 132.027 399.099 131.345C399.234 130.663 399.569 130.037 400.061 129.545C400.553 129.054 401.179 128.719 401.861 128.583C402.543 128.448 403.25 128.517 403.892 128.783C404.535 129.049 405.084 129.5 405.47 130.078C405.856 130.656 406.063 131.336 406.063 132.031C406.063 132.964 405.692 133.858 405.033 134.517C404.373 135.176 403.479 135.547 402.547 135.547ZM381.453 126.172C380.294 126.172 379.161 126.516 378.198 127.159C377.234 127.803 376.483 128.718 376.04 129.789C375.596 130.86 375.48 132.038 375.706 133.174C375.932 134.311 376.49 135.355 377.31 136.174C378.129 136.994 379.173 137.552 380.31 137.778C381.447 138.004 382.625 137.888 383.695 137.445C384.766 137.001 385.681 136.25 386.325 135.287C386.969 134.323 387.313 133.19 387.313 132.031C387.313 131.262 387.161 130.5 386.866 129.789C386.572 129.078 386.14 128.432 385.596 127.888C385.052 127.344 384.406 126.912 383.695 126.618C382.985 126.323 382.223 126.172 381.453 126.172ZM381.453 135.547C380.758 135.547 380.078 135.341 379.5 134.954C378.922 134.568 378.471 134.019 378.205 133.377C377.939 132.734 377.869 132.027 378.005 131.345C378.141 130.663 378.476 130.037 378.967 129.545C379.459 129.054 380.085 128.719 380.767 128.583C381.449 128.448 382.156 128.517 382.798 128.783C383.441 129.049 383.99 129.5 384.376 130.078C384.763 130.656 384.969 131.336 384.969 132.031C384.969 132.964 384.598 133.858 383.939 134.517C383.28 135.176 382.386 135.547 381.453 135.547ZM401.375 123.828H395.516C395.362 123.828 395.209 123.798 395.067 123.739C394.925 123.68 394.795 123.594 394.687 123.485L390.828 119.625L387.797 122.656L392.829 127.687C392.938 127.795 393.024 127.925 393.083 128.067C393.142 128.209 393.172 128.362 393.172 128.516V135.547C393.172 135.858 393.048 136.156 392.829 136.376C392.609 136.595 392.311 136.719 392 136.719C391.689 136.719 391.391 136.595 391.171 136.376C390.952 136.156 390.828 135.858 390.828 135.547V129L385.312 123.485C385.203 123.377 385.116 123.247 385.057 123.105C384.998 122.963 384.968 122.81 384.968 122.656C384.968 122.502 384.998 122.35 385.057 122.207C385.116 122.065 385.203 121.936 385.312 121.827L389.999 117.14C390.108 117.031 390.237 116.944 390.379 116.885C390.522 116.826 390.674 116.796 390.828 116.796C390.982 116.796 391.135 116.826 391.277 116.885C391.419 116.944 391.548 117.031 391.657 117.14L396 121.484H401.375C401.686 121.484 401.984 121.608 402.204 121.828C402.423 122.047 402.547 122.345 402.547 122.656C402.547 122.967 402.423 123.265 402.204 123.485C401.984 123.705 401.686 123.828 401.375 123.828Z" fill="#004D35" fill-opacity="0.8"/>
<circle cx="223" cy="50" r="50" fill="#1A8663"/>
<path d="M223 41.1831C223.927 41.1831 224.833 40.9082 225.604 40.3931C226.375 39.8781 226.976 39.146 227.331 38.2894C227.685 37.4329 227.778 36.4904 227.597 35.5811C227.417 34.6718 226.97 33.8366 226.315 33.181C225.659 32.5255 224.824 32.079 223.914 31.8982C223.005 31.7173 222.063 31.8101 221.206 32.1649C220.35 32.5197 219.618 33.1205 219.102 33.8914C218.587 34.6622 218.312 35.5685 218.312 36.4956C218.312 37.7388 218.806 38.9311 219.685 39.8102C220.565 40.6892 221.757 41.1831 223 41.1831ZM223 34.1519C223.464 34.1519 223.917 34.2893 224.302 34.5469C224.688 34.8044 224.988 35.1704 225.165 35.5987C225.343 36.027 225.389 36.4982 225.299 36.9529C225.208 37.4075 224.985 37.8251 224.657 38.1529C224.33 38.4807 223.912 38.7039 223.457 38.7943C223.003 38.8848 222.531 38.8383 222.103 38.661C221.675 38.4836 221.309 38.1832 221.051 37.7977C220.794 37.4123 220.656 36.9592 220.656 36.4956C220.656 35.874 220.903 35.2779 221.343 34.8383C221.782 34.3988 222.378 34.1519 223 34.1519ZM237.062 44.6987C237.062 45.0095 236.939 45.3076 236.719 45.5274C236.499 45.7471 236.201 45.8706 235.891 45.8706H224.172V49.7847L231.665 52.9971C231.875 53.0874 232.055 53.2375 232.181 53.4289C232.308 53.6202 232.375 53.8444 232.375 54.0737V61.105C232.375 61.4158 232.252 61.7139 232.032 61.9336C231.812 62.1534 231.514 62.2769 231.203 62.2769C230.892 62.2769 230.594 62.1534 230.374 61.9336C230.155 61.7139 230.031 61.4158 230.031 61.105V54.8472L223.227 51.9307L212.065 61.9839C211.834 62.1917 211.53 62.2992 211.219 62.2828C210.909 62.2663 210.618 62.1272 210.41 61.896C210.202 61.6648 210.094 61.3606 210.111 61.0502C210.127 60.7397 210.266 60.4486 210.498 60.2407L221.828 50.0366V45.8706H210.109C209.799 45.8706 209.501 45.7471 209.281 45.5274C209.061 45.3076 208.938 45.0095 208.938 44.6987C208.938 44.3879 209.061 44.0899 209.281 43.8701C209.501 43.6503 209.799 43.5269 210.109 43.5269H235.891C236.201 43.5269 236.499 43.6503 236.719 43.8701C236.939 44.0899 237.062 44.3879 237.062 44.6987Z" fill="#004D35" fill-opacity="0.8"/>
</svg>
