<svg width="466" height="314" viewBox="0 0 466 314" fill="none" xmlns="http://www.w3.org/2000/svg">
<path d="M319.454 313.843C319.454 266.24 280.864 227.65 233.261 227.65C185.658 227.65 147.068 266.24 147.068 313.843" stroke="#1A8663" stroke-width="2.826"/>
<path d="M382.571 313.843C382.571 231.383 315.724 164.536 233.264 164.536C150.804 164.536 83.957 231.383 83.957 313.843" stroke="#1A8663" stroke-width="2.826"/>
<path d="M441.914 313.373C441.914 197.877 348.286 104.249 232.79 104.249C117.294 104.249 23.666 197.877 23.666 313.373" stroke="#1A8663" stroke-width="2.826"/>
<circle cx="75.477" cy="180.55" r="47.1" fill="#1A8663"/>
<path d="M89.4205 170.324C89.2629 169.395 88.8203 168.538 88.154 167.871C87.4877 167.205 86.6307 166.762 85.7017 166.605C81.235 165.847 72.815 165.501 66.6221 171.697C60.4292 177.892 60.7728 186.31 61.5303 190.776C61.6883 191.706 62.132 192.564 62.7996 193.23C63.4672 193.897 64.3257 194.339 65.256 194.495C66.821 194.762 68.4055 194.898 69.9931 194.901C74.4212 194.901 79.9352 193.797 84.3287 189.403C90.523 183.21 90.1781 174.79 89.4205 170.324ZM80.919 168.392C82.3991 168.397 83.8762 168.526 85.3347 168.778C85.8123 168.86 86.2528 169.088 86.5952 169.431C86.9375 169.773 87.1649 170.214 87.2458 170.692C87.5305 172.342 87.6553 174.016 87.6184 175.69L80.334 168.407C80.5272 168.396 80.719 168.393 80.919 168.393V168.392ZM65.6175 192.32C65.1398 192.239 64.6992 192.011 64.3566 191.669C64.0139 191.326 63.7862 190.885 63.705 190.408C63.4203 188.758 63.2955 187.084 63.3324 185.41L70.6155 192.693C68.9414 192.73 67.2676 192.606 65.6175 192.32ZM82.7695 187.844C81.1674 189.445 78.1786 191.67 73.4732 192.435L63.5905 182.552C64.3549 177.847 66.5807 174.858 68.1813 173.256C69.782 171.654 72.7708 169.428 77.4762 168.664L87.3603 178.548C86.5959 183.253 84.3701 186.242 82.7695 187.844ZM80.6693 175.356C80.8761 175.563 80.9924 175.844 80.9924 176.136C80.9924 176.429 80.8761 176.71 80.6693 176.917L78.6905 178.894L79.5654 179.769C79.6745 179.87 79.762 179.992 79.8229 180.127C79.8837 180.263 79.9165 180.409 79.9194 180.558C79.9222 180.707 79.895 180.854 79.8394 180.992C79.7839 181.13 79.701 181.255 79.5959 181.36C79.4908 181.465 79.3655 181.548 79.2276 181.603C79.0898 181.659 78.9421 181.686 78.7935 181.683C78.6449 181.68 78.4985 181.647 78.3629 181.586C78.2274 181.525 78.1056 181.437 78.0047 181.328L77.1313 180.455L75.3802 182.206L76.255 183.081C76.3642 183.181 76.4519 183.303 76.5128 183.439C76.5738 183.574 76.6067 183.721 76.6097 183.869C76.6127 184.018 76.5857 184.166 76.5302 184.303C76.4747 184.441 76.392 184.567 76.287 184.672C76.1819 184.777 76.0567 184.86 75.9189 184.915C75.7811 184.971 75.6335 184.998 75.4849 184.995C75.3363 184.992 75.1898 184.96 75.0542 184.899C74.9186 184.838 74.7967 184.75 74.6958 184.641L73.8195 183.765L71.8408 185.744C71.7393 185.851 71.6175 185.936 71.4824 185.995C71.3474 186.054 71.202 186.085 71.0546 186.087C70.9073 186.089 70.7611 186.061 70.6246 186.006C70.4881 185.95 70.3641 185.868 70.2599 185.764C70.1557 185.66 70.0734 185.536 70.0179 185.399C69.9624 185.263 69.9348 185.117 69.9367 184.969C69.9386 184.822 69.9699 184.676 70.0289 184.541C70.0879 184.406 70.1733 184.285 70.2801 184.183L72.2603 182.206L71.3854 181.331C71.1919 181.121 71.087 180.845 71.0927 180.56C71.0984 180.275 71.2143 180.003 71.4161 179.801C71.6179 179.599 71.89 179.484 72.1752 179.478C72.4604 179.473 72.7367 179.578 72.9461 179.772L73.8209 180.646L75.5706 178.894L74.6958 178.019C74.502 177.81 74.3969 177.534 74.4023 177.248C74.4078 176.963 74.5235 176.691 74.7251 176.489C74.9267 176.287 75.1987 176.171 75.4839 176.166C75.7691 176.16 76.0455 176.265 76.255 176.459L77.1313 177.335L79.11 175.356C79.317 175.15 79.5973 175.034 79.8897 175.034C80.182 175.034 80.4623 175.15 80.6693 175.356Z" fill="#004D35" fill-opacity="0.8"/>
<circle cx="391.045" cy="180.55" r="47.1" fill="#1A8663"/>
<path d="M396.014 173.927C396.778 173.927 397.525 173.7 398.161 173.275C398.796 172.851 399.291 172.247 399.584 171.541C399.876 170.835 399.953 170.059 399.804 169.309C399.654 168.56 399.286 167.871 398.746 167.331C398.206 166.791 397.517 166.423 396.768 166.273C396.018 166.124 395.241 166.201 394.536 166.493C393.83 166.786 393.226 167.281 392.802 167.916C392.377 168.552 392.15 169.299 392.15 170.063C392.15 171.088 392.557 172.07 393.282 172.795C394.007 173.52 394.989 173.927 396.014 173.927ZM396.014 168.407C396.342 168.407 396.662 168.504 396.934 168.686C397.206 168.868 397.419 169.127 397.544 169.429C397.669 169.732 397.702 170.065 397.638 170.386C397.574 170.707 397.417 171.002 397.185 171.234C396.953 171.465 396.658 171.623 396.337 171.687C396.016 171.751 395.683 171.718 395.38 171.593C395.078 171.467 394.819 171.255 394.637 170.983C394.455 170.711 394.358 170.39 394.358 170.063C394.358 169.624 394.533 169.203 394.843 168.892C395.154 168.581 395.575 168.407 396.014 168.407ZM400.982 181.654C399.89 181.654 398.823 181.978 397.915 182.584C397.007 183.191 396.3 184.053 395.882 185.061C395.465 186.07 395.355 187.18 395.568 188.25C395.781 189.321 396.307 190.304 397.079 191.076C397.851 191.848 398.834 192.374 399.905 192.587C400.976 192.8 402.085 192.691 403.094 192.273C404.102 191.855 404.964 191.148 405.571 190.24C406.177 189.332 406.501 188.265 406.501 187.173C406.501 185.71 405.92 184.306 404.885 183.271C403.849 182.235 402.446 181.654 400.982 181.654ZM400.982 190.485C400.327 190.485 399.686 190.291 399.142 189.927C398.597 189.563 398.173 189.046 397.922 188.441C397.671 187.836 397.606 187.17 397.734 186.527C397.861 185.885 398.177 185.295 398.64 184.832C399.103 184.369 399.693 184.053 400.336 183.925C400.978 183.798 401.644 183.863 402.249 184.114C402.854 184.364 403.371 184.789 403.735 185.334C404.099 185.878 404.293 186.518 404.293 187.173C404.293 188.052 403.944 188.894 403.323 189.515C402.702 190.136 401.86 190.485 400.982 190.485ZM381.111 181.654C380.02 181.654 378.953 181.978 378.045 182.584C377.137 183.191 376.43 184.053 376.012 185.061C375.594 186.07 375.485 187.18 375.698 188.25C375.911 189.321 376.437 190.304 377.208 191.076C377.98 191.848 378.964 192.374 380.035 192.587C381.105 192.8 382.215 192.691 383.224 192.273C384.232 191.855 385.094 191.148 385.701 190.24C386.307 189.332 386.631 188.265 386.631 187.173C386.631 186.449 386.488 185.731 386.211 185.061C385.933 184.392 385.527 183.783 385.014 183.271C384.502 182.758 383.893 182.351 383.224 182.074C382.554 181.797 381.836 181.654 381.111 181.654ZM381.111 190.485C380.456 190.485 379.816 190.291 379.271 189.927C378.727 189.563 378.302 189.046 378.052 188.441C377.801 187.836 377.735 187.17 377.863 186.527C377.991 185.885 378.306 185.295 378.77 184.832C379.233 184.369 379.823 184.053 380.465 183.925C381.108 183.798 381.774 183.863 382.379 184.114C382.984 184.364 383.501 184.789 383.865 185.334C384.229 185.878 384.423 186.518 384.423 187.173C384.423 188.052 384.074 188.894 383.453 189.515C382.832 190.136 381.99 190.485 381.111 190.485ZM399.878 179.446H394.358C394.213 179.446 394.07 179.418 393.936 179.362C393.802 179.307 393.68 179.226 393.577 179.123L389.943 175.487L387.088 178.342L391.828 183.081C391.93 183.183 392.011 183.305 392.067 183.439C392.122 183.573 392.151 183.717 392.15 183.862V190.485C392.15 190.778 392.034 191.059 391.827 191.266C391.62 191.473 391.339 191.589 391.046 191.589C390.754 191.589 390.473 191.473 390.266 191.266C390.059 191.059 389.943 190.778 389.943 190.485V184.318L384.746 179.123C384.643 179.021 384.562 178.899 384.506 178.765C384.451 178.631 384.422 178.487 384.422 178.342C384.422 178.197 384.451 178.053 384.506 177.919C384.562 177.785 384.643 177.664 384.746 177.561L389.162 173.146C389.264 173.043 389.386 172.961 389.52 172.906C389.654 172.85 389.798 172.822 389.943 172.822C390.088 172.822 390.231 172.85 390.365 172.906C390.499 172.961 390.621 173.043 390.724 173.146L394.815 177.238H399.878C400.171 177.238 400.451 177.355 400.658 177.562C400.865 177.769 400.982 178.049 400.982 178.342C400.982 178.635 400.865 178.916 400.658 179.123C400.451 179.33 400.171 179.446 399.878 179.446Z" fill="#004D35" fill-opacity="0.8"/>
<circle cx="231.85" cy="109.9" r="47.1" fill="#1A8663"/>
<path d="M231.848 101.595C232.722 101.595 233.575 101.336 234.302 100.851C235.028 100.365 235.594 99.6757 235.928 98.8688C236.262 98.062 236.35 97.1742 236.179 96.3176C236.009 95.4611 235.588 94.6743 234.971 94.0567C234.353 93.4392 233.566 93.0187 232.71 92.8483C231.853 92.6779 230.966 92.7653 230.159 93.0995C229.352 93.4338 228.662 93.9997 228.177 94.7259C227.692 95.452 227.433 96.3057 227.433 97.1791C227.433 98.3502 227.898 99.4733 228.726 100.301C229.554 101.129 230.677 101.595 231.848 101.595ZM231.848 94.9712C232.285 94.9712 232.712 95.1007 233.075 95.3433C233.438 95.5859 233.721 95.9307 233.888 96.3342C234.055 96.7376 234.099 97.1815 234.014 97.6098C233.929 98.0381 233.718 98.4314 233.41 98.7402C233.101 99.049 232.707 99.2593 232.279 99.3444C231.851 99.4296 231.407 99.3859 231.004 99.2188C230.6 99.0517 230.255 98.7687 230.013 98.4056C229.77 98.0426 229.641 97.6157 229.641 97.1791C229.641 96.5935 229.873 96.0319 230.287 95.6179C230.701 95.2039 231.263 94.9712 231.848 94.9712ZM245.095 104.906C245.095 105.199 244.979 105.48 244.772 105.687C244.565 105.894 244.284 106.01 243.991 106.01H232.952V109.697L240.01 112.723C240.209 112.808 240.378 112.95 240.497 113.13C240.616 113.31 240.68 113.522 240.68 113.738V120.361C240.68 120.654 240.563 120.935 240.356 121.142C240.149 121.349 239.869 121.465 239.576 121.465C239.283 121.465 239.002 121.349 238.795 121.142C238.588 120.935 238.472 120.654 238.472 120.361V114.466L232.062 111.719L221.548 121.189C221.33 121.385 221.043 121.486 220.751 121.471C220.458 121.455 220.184 121.324 219.988 121.106C219.793 120.888 219.691 120.602 219.707 120.309C219.722 120.017 219.853 119.743 220.071 119.547L230.745 109.935V106.01H219.705C219.413 106.01 219.132 105.894 218.925 105.687C218.718 105.48 218.602 105.199 218.602 104.906C218.602 104.614 218.718 104.333 218.925 104.126C219.132 103.919 219.413 103.802 219.705 103.802H243.991C244.284 103.802 244.565 103.919 244.772 104.126C244.979 104.333 245.095 104.614 245.095 104.906Z" fill="#004D35" fill-opacity="0.8"/>
</svg>
