<svg width="38" height="59" viewBox="0 0 38 59" fill="none" xmlns="http://www.w3.org/2000/svg">
<path d="M5.0511 23.5634C4.70674 25.7407 3.83536 31.3548 3.09272 36.0156C2.34364 40.6177 1.44086 45.6792 1.08521 47.2218C0.381125 50.1068 0.451177 51.0118 1.3445 51.1827C2.59515 51.4221 2.91058 50.0444 6.73971 27.7978C6.88856 26.7622 7.16216 26.0668 7.32715 26.2422C7.95411 26.9086 8.95549 32.8522 8.85499 35.3926C8.63467 40.2972 10.542 40.1445 13.736 34.9749C18.3673 27.4919 31.4412 8.99879 32.0037 9.07768C32.3015 9.13466 30.9013 12.3179 28.0767 17.9321C27.2374 19.5834 24.4023 24.304 21.7547 28.3414C15.6741 37.7616 14.1926 41.5333 16.096 42.674C16.6577 43.0116 17.1881 42.7967 18.3566 41.7548C20.8063 39.6352 28.1225 35.3694 28.5514 35.8254C28.6834 35.9657 24.4126 40.354 19.0666 45.572C9.15835 55.1801 8.2345 56.3262 9.20352 57.7196C9.89568 58.7148 10.4397 58.3588 13.7279 54.8465C15.3954 53.0374 19.8586 48.542 23.6176 44.8035C30.2987 38.2017 34.007 33.7345 33.8653 32.4419C33.8202 32.0307 33.5563 31.7501 32.9414 31.4598C32.333 31.2284 30.4836 31.9099 26.2996 33.899C23.1167 35.4469 20.3651 36.6748 20.1865 36.6406C19.8291 36.5722 19.776 36.6196 24.6793 28.9586C31.8576 17.8503 37.8109 4.60944 37.1984 1.4149C36.9311 0.0408042 35.8197 -0.258148 34.6777 0.760017C33.6155 1.70715 12.0909 31.669 11.9895 32.3399C11.8938 33.3282 11.3159 31.7796 10.6438 28.5737C9.32609 22.1381 8.6709 19.8845 7.91196 19.0778C6.62505 17.7099 5.72696 19.0911 5.0511 23.5634Z" fill="#5D6C5F"/>
</svg>
