<svg width="42" height="42" viewBox="0 0 42 42" fill="none" xmlns="http://www.w3.org/2000/svg">
<path d="M5.25 11.1875C5.25 10.0829 6.14543 9.1875 7.25 9.1875H34.75C35.8546 9.1875 36.75 10.0829 36.75 11.1875V31.5C36.75 31.8481 36.6117 32.1819 36.3656 32.4281C36.1194 32.6742 35.7856 32.8125 35.4375 32.8125H6.5625C6.2144 32.8125 5.88056 32.6742 5.63442 32.4281C5.38828 32.1819 5.25 31.8481 5.25 31.5V11.1875Z" fill="#BAFF3B" stroke="black" stroke-linecap="round" stroke-linejoin="round"/>
<path d="M35.3675 9.94739L20.4464 23.2105L5.52539 9.94739" stroke="black" stroke-linecap="round" stroke-linejoin="round"/>
<path d="M18.1362 21L5.6543 32.4417" stroke="black" stroke-linecap="round" stroke-linejoin="round"/>
<path d="M36.3452 32.4417L23.8633 21" stroke="black" stroke-linecap="round" stroke-linejoin="round"/>
<path d="M38.5702 5.57111L37.7511 7.82442C37.7319 7.87595 37.6975 7.9204 37.6524 7.95179C37.6073 7.98318 37.5536 8 37.4987 8C37.4437 8 37.39 7.98318 37.3449 7.95179C37.2998 7.9204 37.2654 7.87595 37.2462 7.82442L36.4284 5.57111L34.1755 4.75179C34.124 4.73266 34.0796 4.69822 34.0482 4.65308C34.0168 4.60795 34 4.5543 34 4.49933C34 4.44435 34.0168 4.3907 34.0482 4.34557C34.0796 4.30044 34.124 4.26599 34.1755 4.24687L36.4284 3.42889L37.2476 1.17558C37.2667 1.12405 37.3011 1.0796 37.3463 1.04821C37.3914 1.01682 37.445 1 37.5 1C37.555 1 37.6086 1.01682 37.6537 1.04821C37.6989 1.0796 37.7333 1.12405 37.7524 1.17558L38.5716 3.42889L40.8245 4.24821C40.876 4.26734 40.9204 4.30178 40.9518 4.34691C40.9832 4.39205 41 4.4457 41 4.50067C41 4.55565 40.9832 4.6093 40.9518 4.65443C40.9204 4.69956 40.876 4.73401 40.8245 4.75313L38.5702 5.57111Z" fill="#BAFF3B" stroke="black" stroke-width="0.5" stroke-linecap="round" stroke-linejoin="round"/>
</svg>
