<svg width="45" height="46" viewBox="0 0 45 46" fill="none" xmlns="http://www.w3.org/2000/svg">
<path d="M19.7401 1.20451C18.7725 1.94189 17.0307 4.3998 15.805 6.67337C13.9987 10.053 13.2246 10.9133 11.8054 11.2205C10.8377 11.4049 8.32182 11.835 6.322 12.2037C2.38688 12.9411 0 14.8459 0 17.2424C0 17.9183 1.8708 20.3148 4.12865 22.5269L8.1928 26.521L5.41886 34.5707C2.12884 43.8493 1.8708 46 4.06414 46C4.83827 46 6.38651 45.2012 7.41867 44.2795C11.6118 40.5926 18.2564 35.431 19.6111 34.8779C20.7078 34.3864 21.869 34.6321 25.159 36.1069C30.2553 38.4419 32.8357 38.5034 35.2871 36.537C37.2224 34.9394 37.5449 32.42 36.5773 26.9512L36.1257 24.186L39.6093 21.6052C43.996 18.4099 45.4152 16.4436 44.8991 14.3544C44.3185 12.2651 42.7058 11.5892 36.3193 10.9747C33.2873 10.6675 30.7714 10.3602 30.6424 10.2373C30.5778 10.1145 29.6747 8.45536 28.6425 6.42758C25.288 -0.0244446 23.0947 -1.31485 19.7401 1.20451ZM23.4817 8.94695C23.9333 10.1759 23.7398 10.3602 21.998 10.3602H19.9982L21.0948 8.20957C22.1915 5.99744 22.5786 6.12034 23.4817 8.94695ZM27.3523 19.0244C28.3845 21.4823 28.3845 21.6666 27.1588 22.8956C25.0945 24.9848 21.5464 26.521 19.8691 26.0909C19.0305 25.9066 17.6758 25.1692 16.7727 24.5547L15.2244 23.3872L16.3211 19.9461L17.4823 16.505H21.869H26.3202L27.3523 19.0244ZM35.4806 16.9966C35.4806 17.7954 34.7065 18.3485 34.0614 17.9798C33.4163 17.6111 33.9969 16.505 34.9 16.505C35.2226 16.505 35.4806 16.7508 35.4806 16.9966ZM10.9667 18.3485C10.9667 18.6557 10.5152 18.9629 9.99908 18.9629C9.483 18.9629 9.03143 18.6557 9.03143 18.3485C9.03143 17.9798 9.483 17.734 9.99908 17.734C10.5152 17.734 10.9667 17.9798 10.9667 18.3485ZM30.9649 30.3922C30.9649 31.9899 30.2553 32.2357 28.2555 31.1911L26.9008 30.5151L28.449 29.4091C30.2553 28.0572 30.9649 28.3645 30.9649 30.3922ZM14.5148 30.5766C14.8373 31.1911 12.2569 33.2803 11.7409 32.8502C11.6118 32.6658 11.6763 31.9899 11.9344 31.314C12.386 29.9621 13.8052 29.5934 14.5148 30.5766Z" fill="#007952" fill-opacity="0.5"/>
</svg>
