<svg width="327" height="298" viewBox="0 0 327 298" fill="none" xmlns="http://www.w3.org/2000/svg">
<path d="M227.447 70.2561C226.242 82.6349 222.992 107.624 218.843 118.497C213.215 133.249 208.974 141.452 205.268 147.646C202.445 152.365 198.439 156.549 189.321 163.259C183.157 167.796 174.638 172.05 168.266 173.842C166.267 174.405 163.368 173.587 161.181 172.513C157.021 170.47 155.401 165.872 154.306 162.296C151.854 154.283 154.519 132.446 157.192 119.747C158.449 113.773 163.322 109.693 168.12 104.936C172.548 100.545 177.409 96.2727 183.153 94.647C189.146 92.9504 194.32 92.258 203.308 93.12C209.558 93.7194 213.448 99.3118 216.903 104.214C220.183 108.867 222.899 116.72 224.495 123.86C226.192 131.454 223.094 153.131 216.793 173.519C214.222 181.838 210.285 187.26 207.92 192.469C204.856 199.219 200.27 205.407 196.427 210.916C192.12 217.091 183.812 222.066 176.416 227.881C170.583 232.468 161.322 236.834 154.051 241.363C149.115 244.438 143.53 245.563 138.044 246.771C130.993 248.322 125.126 248.128 116.309 249.65C109.147 250.887 102.458 252 94.518 252.968C82.5594 253.115 69.7962 252.303 63.2375 252.316C57.9349 252.022 48.6237 251.115 39.0303 250.181" stroke="#FF6411" stroke-width="3" stroke-linecap="round" stroke-dasharray="20 20"/>
<path d="M38.1698 251.204C38.5583 251.242 40.3503 252.198 41.5617 253.032C43.3733 254.28 43.9226 254.961 44.5036 255.492C45.0279 255.971 45.499 256.221 45.9385 256.58C46.3621 256.926 46.8275 257.179 47.2689 257.519C47.6806 257.836 48.1559 258.138 48.6834 258.604C49.1467 259.013 49.5675 259.46 49.9976 259.917C50.1035 260.029 50.2146 260.116 50.2143 260.137C50.21 260.514 49.4393 259.609 49.0092 259.152C48.6122 258.731 48.0713 258.253 47.5901 257.908C47.1378 257.583 46.7107 257.211 46.2923 256.834C45.8991 256.48 45.596 256.076 45.2002 255.681C44.7985 255.28 44.3227 254.964 43.8756 254.683C43.3757 254.369 42.9943 254.005 42.5353 253.644C42.023 253.241 41.5598 252.918 41.1203 252.559C40.6967 252.212 40.3164 251.889 39.9111 251.591C39.4782 251.273 38.9503 250.927 38.5154 250.508C38.4241 250.42 38.4183 250.282 38.491 250.131C38.8376 249.412 39.4692 249.2 40.6741 248.154C41.2559 247.649 41.7552 247.212 42.2556 246.745C42.7145 246.318 43.3122 245.823 43.9813 245.236C44.7342 244.616 46.0132 243.564 46.8943 242.911C47.0024 242.823 47.0912 242.714 47.1827 242.602" stroke="#FF6411" stroke-width="2" stroke-linecap="round"/>
<path d="M201.861 20.6494L201.395 22.6395L199.677 22.2371L197.908 29.7887L195.755 29.2841L197.524 21.7326L195.752 21.3174L196.218 19.3273L201.861 20.6494ZM202.633 20.8301L204.786 21.3346L202.551 30.8763L200.37 30.3654L202.633 20.8301ZM206.177 21.6604C206.722 21.7881 207.182 22.011 207.558 22.3292C207.937 22.6382 208.197 23.0396 208.34 23.5333C208.486 24.0179 208.482 24.5873 208.328 25.2416C208.171 25.914 207.904 26.441 207.527 26.8224C207.15 27.2038 206.717 27.457 206.227 27.582C205.749 27.7 205.269 27.7026 204.787 27.5898L202.293 27.0054L203.682 21.076L206.177 21.6604ZM203.828 25.4239L204.932 25.6826C205.123 25.7273 205.293 25.7191 205.441 25.658C205.599 25.5991 205.729 25.4953 205.831 25.3466C205.944 25.191 206.025 25.0087 206.074 24.7997C206.123 24.5907 206.129 24.4004 206.093 24.2289C206.065 24.0595 205.993 23.9179 205.876 23.8042C205.77 23.6835 205.621 23.6009 205.431 23.5561L204.326 23.2975L203.828 25.4239ZM204.118 26.2108L206.19 26.6962L206.856 31.5255L206.776 31.8662L204.527 31.3393L204.118 26.2108ZM209.302 22.3925L211.565 22.9226L211.558 27.738L212.185 27.8849L214.318 23.5676L216.581 24.0977L216.501 24.4385L213.311 30.32L212.466 30.122L211.783 33.0391L209.629 32.5345L210.309 29.6311L209.464 29.4331L209.222 22.7333L209.302 22.3925ZM225.116 26.0974L224.65 28.0875L222.933 27.6851L221.163 35.2367L219.01 34.7321L220.779 27.1806L219.007 26.7654L219.473 24.7753L225.116 26.0974ZM230.25 27.3L232.431 27.8109L230.195 37.3526L228.014 36.8416L228.905 33.0386L226.697 32.5213L225.806 36.3243L223.625 35.8134L225.86 26.2717L228.041 26.7826L227.15 30.5857L229.359 31.103L230.25 27.3ZM238.609 29.2583L238.149 31.2211L235.368 30.5697L234.895 32.587C235.192 32.551 235.491 32.5397 235.795 32.5533C236.101 32.5578 236.396 32.584 236.682 32.6318C236.968 32.6796 237.231 32.7459 237.47 32.8307L237.026 34.7254L236.87 34.7752C236.695 34.6669 236.48 34.5784 236.228 34.5097C235.985 34.4431 235.714 34.3939 235.414 34.3622C235.115 34.3304 234.804 34.3294 234.48 34.3591L234.052 36.1856L236.833 36.8371L236.373 38.7999L231.439 37.6439L233.674 28.1023L238.609 29.2583ZM247.719 31.3926L247.253 33.3827L245.535 32.9803L243.766 40.5319L241.613 40.0273L243.382 32.4758L241.61 32.0606L242.076 30.0705L247.719 31.3926ZM248.491 31.5733L250.644 32.0778L248.409 41.6195L246.228 41.1086L248.491 31.5733ZM252.035 32.4036C252.58 32.5313 253.04 32.7542 253.416 33.0724C253.795 33.3815 254.055 33.7828 254.198 34.2765C254.344 34.7611 254.34 35.3305 254.186 35.9848C254.029 36.6573 253.762 37.1842 253.385 37.5656C253.008 37.947 252.575 38.2002 252.085 38.3252C251.607 38.4433 251.127 38.4459 250.645 38.333L248.151 37.7486L249.54 31.8192L252.035 32.4036ZM249.686 36.1671L250.79 36.4258C250.981 36.4705 251.151 36.4623 251.299 36.4012C251.457 36.3423 251.587 36.2385 251.689 36.0898C251.802 35.9342 251.883 35.7519 251.932 35.5429C251.981 35.3339 251.987 35.1436 251.951 34.9721C251.923 34.8027 251.851 34.6612 251.734 34.5474C251.628 34.4268 251.479 34.3441 251.289 34.2994L250.184 34.0407L249.686 36.1671ZM249.976 36.9541L252.048 37.4394L252.714 42.2687L252.635 42.6094L250.385 42.0825L249.976 36.9541ZM260.871 40.973C260.718 41.6273 260.488 42.1582 260.182 42.5657C259.884 42.9754 259.54 43.2782 259.149 43.4742C258.767 43.6723 258.366 43.7892 257.945 43.8249C257.527 43.8515 257.122 43.819 256.732 43.7275C256.341 43.6359 255.964 43.4853 255.601 43.2756C255.24 43.0569 254.928 42.7729 254.665 42.4236C254.41 42.0765 254.237 41.6523 254.143 41.1511C254.059 40.652 254.093 40.0753 254.246 39.4211L255.69 33.2599L257.871 33.7708L256.498 39.6321C256.423 39.9502 256.392 40.2449 256.406 40.5164C256.421 40.7788 256.493 41.0019 256.623 41.1856C256.763 41.3623 256.97 41.4826 257.243 41.5465C257.515 41.6104 257.749 41.5933 257.945 41.4953C258.142 41.3882 258.306 41.2205 258.437 40.9922C258.578 40.7569 258.686 40.4803 258.76 40.1622L260.134 34.3009L262.314 34.8118L260.871 40.973ZM268.386 36.2342L267.926 38.197L265.172 37.552L264.652 39.7738C264.948 39.7377 265.248 39.7265 265.551 39.7401C265.857 39.7446 266.153 39.7708 266.439 39.8186C266.725 39.8664 266.987 39.9327 267.226 40.0174L266.782 41.9121L266.627 41.962C266.451 41.8537 266.237 41.7652 265.985 41.6965C265.741 41.6299 265.47 41.5807 265.171 41.5489C264.871 41.5172 264.56 41.5161 264.237 41.5458L263.397 45.1308L261.243 44.6262L263.479 35.0846L268.386 36.2342ZM274.176 37.5907L273.716 39.5536L270.963 38.9085L270.442 41.1304C270.738 41.0943 271.038 41.083 271.342 41.0966C271.648 41.1011 271.943 41.1273 272.229 41.1751C272.515 41.2229 272.778 41.2892 273.017 41.374L272.573 43.2687L272.417 43.3185C272.241 43.2102 272.027 43.1217 271.775 43.053C271.532 42.9864 271.261 42.9373 270.961 42.9055C270.662 42.8737 270.351 42.8727 270.027 42.9024L269.187 46.4873L267.034 45.9828L269.269 36.4411L274.176 37.5907ZM275.06 37.7977L277.213 38.3022L275.438 45.881L277.81 46.4367L277.35 48.3995L272.824 47.3393L275.06 37.7977ZM285.265 40.1886L284.806 42.1514L282.025 41.5L281.552 43.5174C281.848 43.4813 282.148 43.47 282.452 43.4836C282.757 43.4881 283.053 43.5143 283.339 43.5621C283.625 43.6099 283.888 43.6762 284.126 43.761L283.683 45.6557L283.527 45.7055C283.351 45.5972 283.137 45.5087 282.885 45.44C282.642 45.3734 282.37 45.3243 282.071 45.2925C281.772 45.2607 281.46 45.2597 281.137 45.2894L280.709 47.1159L283.49 47.7674L283.03 49.7302L278.096 48.5742L280.331 39.0326L285.265 40.1886ZM221.381 46.9058C221.242 47.4965 221.001 47.9721 220.658 48.3326C220.317 48.6841 219.903 48.9178 219.415 49.0337C218.937 49.1517 218.421 49.1458 217.867 49.0159C217.43 48.9137 217.034 48.7634 216.678 48.565C216.329 48.3777 216.035 48.1795 215.797 47.9702C215.558 47.7609 215.387 47.5914 215.283 47.4617L215.778 45.3489L216.051 45.4127C216.278 45.7535 216.576 46.0773 216.945 46.3842C217.316 46.6821 217.683 46.8736 218.047 46.9588C218.228 47.0013 218.394 47.0113 218.543 46.9887C218.703 46.9592 218.837 46.8995 218.944 46.8096C219.052 46.7197 219.122 46.602 219.156 46.4567C219.212 46.2204 219.179 46.0115 219.059 45.8299C218.947 45.6504 218.754 45.4325 218.479 45.1763L217.652 44.4075C217.409 44.178 217.177 43.9176 216.958 43.6266C216.739 43.3355 216.578 42.9961 216.478 42.6082C216.386 42.2224 216.4 41.7751 216.519 41.2662C216.661 40.6573 216.909 40.1737 217.261 39.8153C217.614 39.4569 218.023 39.2222 218.49 39.1111C218.969 38.993 219.467 38.9947 219.985 39.116C220.375 39.2076 220.725 39.3326 221.033 39.491C221.343 39.6403 221.614 39.814 221.845 40.0121C222.088 40.2032 222.279 40.4109 222.418 40.6352L221.923 42.748L221.651 42.6841C221.432 42.307 221.149 41.9818 220.801 41.7086C220.464 41.4283 220.109 41.2445 219.736 41.1573C219.509 41.104 219.3 41.1173 219.109 41.1971C218.929 41.27 218.813 41.4155 218.762 41.6336C218.709 41.8608 218.767 42.0852 218.935 42.3068C219.104 42.5284 219.344 42.7908 219.657 43.0941L220.497 43.9238C220.762 44.187 220.974 44.4668 221.135 44.7633C221.307 45.0528 221.413 45.3749 221.455 45.7297C221.508 46.0776 221.483 46.4696 221.381 46.9058ZM228.646 41.3034L228.187 43.2663L225.406 42.6149L224.933 44.6322C225.229 44.5961 225.529 44.5849 225.833 44.5985C226.138 44.603 226.434 44.6292 226.72 44.677C227.006 44.7248 227.269 44.7911 227.508 44.8758L227.064 46.7705L226.908 46.8204C226.732 46.7121 226.518 46.6236 226.266 46.5549C226.023 46.4883 225.751 46.4391 225.452 46.4074C225.153 46.3756 224.841 46.3745 224.518 46.4043L224.09 48.2308L226.871 48.8822L226.411 50.8451L221.477 49.6891L223.712 40.1475L228.646 41.3034ZM226.815 50.9398L226.895 50.599L230.945 41.842L234.568 42.705L234.31 52.3362L234.23 52.6769L231.981 52.15L232.148 49.9029L229.913 49.3792L229.064 51.4667L226.815 50.9398ZM230.64 47.5652L232.303 47.9547L232.565 44.3784L231.993 44.2443L230.64 47.5652ZM237.171 43.3004L239.324 43.8049L237.089 53.3466L234.908 52.8357L237.171 43.3004ZM240.715 44.1307C241.26 44.2584 241.72 44.4813 242.096 44.7995C242.475 45.1086 242.735 45.5099 242.878 46.0036C243.024 46.4882 243.02 47.0576 242.866 47.7119C242.709 48.3844 242.442 48.9113 242.065 49.2927C241.688 49.6741 241.255 49.9273 240.765 50.0523C240.287 50.1704 239.807 50.173 239.326 50.0601L236.831 49.4757L238.22 43.5463L240.715 44.1307ZM238.366 47.8942L239.47 48.1529C239.661 48.1976 239.831 48.1894 239.979 48.1283C240.137 48.0694 240.267 47.9656 240.369 47.8169C240.482 47.6613 240.563 47.479 240.612 47.27C240.661 47.061 240.667 46.8707 240.631 46.6992C240.603 46.5298 240.531 46.3883 240.414 46.2745C240.308 46.1539 240.159 46.0712 239.969 46.0265L238.864 45.7678L238.366 47.8942ZM238.656 48.6812L240.728 49.1665L241.394 53.9958L241.315 54.3365L239.065 53.8096L238.656 48.6812ZM243.006 49.7002C243.204 48.8551 243.489 48.1501 243.861 47.5854C244.233 47.0207 244.657 46.5831 245.132 46.2727C245.619 45.9553 246.13 45.7587 246.665 45.6828C247.203 45.5979 247.735 45.6171 248.262 45.7406C248.771 45.8598 249.177 46.0077 249.481 46.1843C249.794 46.3631 250.008 46.5331 250.123 46.6944L249.641 48.7526L249.369 48.6888C249.28 48.5339 249.136 48.3707 248.937 48.1994C248.749 48.0211 248.495 47.8946 248.177 47.8201C247.732 47.7158 247.315 47.7379 246.925 47.8863C246.538 48.0256 246.198 48.291 245.905 48.6825C245.612 49.074 245.391 49.5878 245.242 50.2239C245.093 50.86 245.062 51.4185 245.151 51.8994C245.24 52.3803 245.426 52.7737 245.709 53.0797C245.994 53.3765 246.359 53.5771 246.804 53.6814C247.122 53.756 247.404 53.7597 247.65 53.6926C247.907 53.6186 248.109 53.5319 248.257 53.4323L248.53 53.4962L248.048 55.5545C247.875 55.6385 247.607 55.6957 247.245 55.726C246.895 55.7493 246.465 55.7014 245.956 55.5821C245.429 55.4587 244.943 55.244 244.497 54.9382C244.053 54.6234 243.682 54.2202 243.385 53.7288C243.099 53.2305 242.915 52.6458 242.833 51.9746C242.75 51.3034 242.808 50.5453 243.006 49.7002ZM255.616 47.6216L257.797 48.1326L255.562 57.6742L253.381 57.1633L254.272 53.3603L252.063 52.8429L251.172 56.646L248.992 56.135L251.227 46.5934L253.408 47.1043L252.517 50.9073L254.725 51.4247L255.616 47.6216Z" fill="#FF6411"/>
</svg>
