<svg width="327" height="298" viewBox="0 0 327 298" fill="none" xmlns="http://www.w3.org/2000/svg">
<path d="M227.445 70.2567C226.24 82.6355 222.99 107.624 218.841 118.497C213.213 133.25 208.972 141.452 205.267 147.646C202.443 152.366 198.437 156.549 189.319 163.26C183.155 167.796 174.636 172.05 168.264 173.843C166.265 174.405 163.366 173.588 161.179 172.514C157.019 170.471 155.399 165.873 154.304 162.296C151.852 154.284 154.517 132.446 157.19 119.747C158.447 113.774 163.32 109.694 168.118 104.937C172.546 100.545 177.407 96.2733 183.151 94.6476C189.144 92.951 194.318 92.2586 203.306 93.1206C209.556 93.72 213.446 99.3124 216.901 104.214C220.181 108.868 222.897 116.72 224.493 123.861C226.19 131.455 223.092 153.132 216.791 173.519C214.22 181.838 210.283 187.26 207.918 192.469C204.854 199.22 200.268 205.408 196.425 210.917C192.118 217.091 183.81 222.067 176.414 227.882C170.581 232.468 161.32 236.835 154.049 241.364C149.113 244.439 143.529 245.564 138.042 246.771C130.991 248.323 125.124 248.129 116.307 249.651C109.145 250.887 102.456 252 94.5161 252.969C82.5574 253.115 69.7942 252.303 63.2356 252.317C57.9329 252.022 48.6217 251.116 39.0283 250.182" stroke="#FF6411" stroke-width="3" stroke-linecap="round" stroke-dasharray="20 20"/>
<path d="M38.1679 251.204C38.5564 251.242 40.3483 252.198 41.5598 253.033C43.3714 254.28 43.9206 254.961 44.5016 255.492C45.026 255.971 45.497 256.221 45.9366 256.58C46.3602 256.926 46.8255 257.18 47.2669 257.52C47.6786 257.836 48.154 258.138 48.6815 258.605C49.1447 259.014 49.5655 259.461 49.9956 259.917C50.1015 260.03 50.2126 260.116 50.2124 260.137C50.208 260.514 49.4373 259.609 49.0072 259.153C48.6102 258.731 48.0693 258.253 47.5881 257.908C47.1358 257.583 46.7087 257.211 46.2904 256.834C45.8972 256.48 45.594 256.076 45.1983 255.681C44.7966 255.28 44.3208 254.964 43.8736 254.683C43.3737 254.369 42.9923 254.006 42.5334 253.645C42.0211 253.242 41.5579 252.918 41.1183 252.559C40.6947 252.213 40.3144 251.889 39.9092 251.592C39.4763 251.274 38.9484 250.927 38.5134 250.508C38.4222 250.421 38.4163 250.283 38.4891 250.132C38.8357 249.412 39.4672 249.2 40.6721 248.155C41.254 247.65 41.7532 247.212 42.2536 246.746C42.7126 246.318 43.3103 245.823 43.9794 245.236C44.7322 244.617 46.0112 243.565 46.8923 242.912C47.0005 242.823 47.0892 242.715 47.1807 242.603" stroke="#122217" stroke-opacity="0.3" stroke-width="2" stroke-linecap="round"/>
<path d="M201.859 20.65L201.393 22.6401L199.675 22.2377L197.906 29.7893L195.753 29.2847L197.522 21.7332L195.75 21.318L196.216 19.3279L201.859 20.65ZM202.631 20.8307L204.784 21.3352L202.549 30.8769L200.368 30.366L202.631 20.8307ZM206.175 21.661C206.72 21.7887 207.181 22.0116 207.557 22.3298C207.935 22.6389 208.195 23.0402 208.338 23.5339C208.484 24.0185 208.48 24.5879 208.327 25.2422C208.169 25.9147 207.902 26.4416 207.525 26.823C207.148 27.2044 206.715 27.4576 206.225 27.5826C205.747 27.7007 205.267 27.7033 204.786 27.5904L202.291 27.006L203.68 21.0766L206.175 21.661ZM203.826 25.4245L204.93 25.6832C205.121 25.7279 205.291 25.7197 205.439 25.6586C205.597 25.5997 205.727 25.4959 205.829 25.3472C205.942 25.1916 206.023 25.0093 206.072 24.8003C206.121 24.5913 206.127 24.401 206.091 24.2295C206.063 24.0601 205.991 23.9186 205.874 23.8048C205.768 23.6842 205.619 23.6015 205.429 23.5568L204.324 23.2981L203.826 25.4245ZM204.116 26.2115L206.188 26.6968L206.854 31.5261L206.775 31.8668L204.525 31.3399L204.116 26.2115ZM209.3 22.3931L211.563 22.9232L211.556 27.7387L212.183 27.8855L214.316 23.5683L216.579 24.0984L216.499 24.4391L213.309 30.3206L212.464 30.1226L211.781 33.0397L209.627 32.5351L210.307 29.6317L209.462 29.4337L209.22 22.7339L209.3 22.3931ZM225.114 26.098L224.648 28.0881L222.931 27.6857L221.161 35.2373L219.008 34.7327L220.777 27.1812L219.005 26.7661L219.471 24.7759L225.114 26.098ZM230.248 27.3006L232.429 27.8115L230.193 37.3532L228.012 36.8422L228.903 33.0392L226.695 32.5219L225.804 36.3249L223.623 35.814L225.858 26.2723L228.039 26.7833L227.148 30.5863L229.357 31.1036L230.248 27.3006ZM238.607 29.2589L238.147 31.2217L235.366 30.5703L234.894 32.5877C235.19 32.5516 235.489 32.5403 235.793 32.5539C236.099 32.5584 236.394 32.5846 236.68 32.6324C236.966 32.6802 237.229 32.7465 237.468 32.8313L237.024 34.726L236.868 34.7758C236.693 34.6675 236.478 34.579 236.226 34.5103C235.983 34.4437 235.712 34.3946 235.412 34.3628C235.113 34.331 234.802 34.33 234.478 34.3597L234.05 36.1862L236.831 36.8377L236.371 38.8005L231.437 37.6445L233.672 28.1029L238.607 29.2589ZM247.717 31.3932L247.251 33.3833L245.533 32.9809L243.764 40.5325L241.611 40.0279L243.38 32.4764L241.608 32.0613L242.074 30.0711L247.717 31.3932ZM248.489 31.5739L250.642 32.0785L248.407 41.6201L246.226 41.1092L248.489 31.5739ZM252.033 32.4042C252.578 32.5319 253.039 32.7549 253.415 33.073C253.793 33.3821 254.053 33.7834 254.196 34.2771C254.342 34.7617 254.338 35.3311 254.185 35.9854C254.027 36.6579 253.76 37.1848 253.383 37.5662C253.006 37.9476 252.573 38.2008 252.083 38.3258C251.605 38.4439 251.125 38.4465 250.644 38.3336L248.149 37.7493L249.538 31.8198L252.033 32.4042ZM249.684 36.1677L250.788 36.4264C250.979 36.4711 251.149 36.4629 251.297 36.4019C251.455 36.3429 251.585 36.2391 251.687 36.0904C251.8 35.9348 251.881 35.7525 251.93 35.5435C251.979 35.3345 251.985 35.1442 251.949 34.9727C251.921 34.8033 251.849 34.6618 251.732 34.548C251.626 34.4274 251.477 34.3447 251.287 34.3L250.182 34.0413L249.684 36.1677ZM249.974 36.9547L252.046 37.4401L252.712 42.2693L252.633 42.61L250.383 42.0831L249.974 36.9547ZM260.869 40.9736C260.716 41.6279 260.486 42.1588 260.18 42.5664C259.882 42.976 259.538 43.2788 259.147 43.4748C258.765 43.6729 258.364 43.7898 257.944 43.8255C257.525 43.8521 257.12 43.8196 256.73 43.7281C256.339 43.6365 255.962 43.4859 255.599 43.2762C255.238 43.0575 254.926 42.7735 254.663 42.4242C254.408 42.0771 254.235 41.6529 254.141 41.1517C254.057 40.6526 254.091 40.076 254.244 39.4217L255.688 33.2605L257.869 33.7714L256.496 39.6327C256.421 39.9508 256.39 40.2455 256.404 40.517C256.419 40.7794 256.491 41.0025 256.621 41.1862C256.761 41.3629 256.968 41.4833 257.241 41.5471C257.513 41.611 257.747 41.5939 257.943 41.4959C258.14 41.3889 258.304 41.2212 258.435 40.9928C258.576 40.7575 258.684 40.4809 258.758 40.1628L260.132 34.3015L262.313 34.8124L260.869 40.9736ZM268.384 36.2348L267.924 38.1976L265.171 37.5526L264.65 39.7744C264.946 39.7383 265.246 39.7271 265.549 39.7407C265.855 39.7452 266.151 39.7714 266.437 39.8192C266.723 39.867 266.985 39.9333 267.224 40.018L266.78 41.9127L266.625 41.9626C266.449 41.8543 266.235 41.7658 265.983 41.6971C265.739 41.6305 265.468 41.5813 265.169 41.5496C264.869 41.5178 264.558 41.5167 264.235 41.5464L263.395 45.1314L261.241 44.6268L263.477 35.0852L268.384 36.2348ZM274.174 37.5913L273.714 39.5542L270.961 38.9091L270.44 41.131C270.737 41.0949 271.036 41.0836 271.34 41.0972C271.646 41.1017 271.941 41.1279 272.227 41.1757C272.513 41.2236 272.776 41.2898 273.015 41.3746L272.571 43.2693L272.415 43.3191C272.24 43.2108 272.025 43.1223 271.773 43.0536C271.53 42.987 271.259 42.9379 270.959 42.9061C270.66 42.8743 270.349 42.8733 270.025 42.903L269.186 46.4879L267.032 45.9834L269.267 36.4417L274.174 37.5913ZM275.058 37.7983L277.211 38.3028L275.436 45.8816L277.808 46.4373L277.348 48.4001L272.822 47.3399L275.058 37.7983ZM285.263 40.1892L284.804 42.152L282.023 41.5006L281.55 43.518C281.846 43.4819 282.146 43.4706 282.45 43.4842C282.755 43.4888 283.051 43.5149 283.337 43.5627C283.623 43.6106 283.886 43.6768 284.125 43.7616L283.681 45.6563L283.525 45.7061C283.349 45.5978 283.135 45.5093 282.883 45.4406C282.64 45.374 282.368 45.3249 282.069 45.2931C281.77 45.2613 281.458 45.2603 281.135 45.29L280.707 47.1165L283.488 47.768L283.028 49.7308L278.094 48.5749L280.329 39.0332L285.263 40.1892ZM221.379 46.9064C221.24 47.4971 220.999 47.9727 220.656 48.3332C220.315 48.6847 219.901 48.9184 219.413 49.0343C218.935 49.1523 218.419 49.1464 217.865 49.0165C217.429 48.9144 217.032 48.764 216.676 48.5656C216.327 48.3783 216.033 48.1801 215.795 47.9708C215.556 47.7615 215.385 47.592 215.281 47.4623L215.776 45.3495L216.049 45.4133C216.276 45.7541 216.574 46.0779 216.943 46.3849C217.314 46.6827 217.681 46.8742 218.045 46.9594C218.226 47.0019 218.392 47.0119 218.541 46.9893C218.701 46.9598 218.835 46.9001 218.942 46.8102C219.05 46.7203 219.12 46.6027 219.154 46.4573C219.21 46.221 219.177 46.0121 219.057 45.8305C218.946 45.651 218.752 45.4332 218.477 45.1769L217.65 44.4081C217.407 44.1786 217.175 43.9183 216.956 43.6272C216.737 43.3362 216.577 42.9967 216.476 42.6088C216.384 42.223 216.398 41.7757 216.517 41.2668C216.659 40.658 216.907 40.1743 217.259 39.8159C217.612 39.4575 218.021 39.2228 218.488 39.1117C218.967 38.9937 219.465 38.9953 219.983 39.1167C220.373 39.2082 220.723 39.3332 221.031 39.4916C221.341 39.641 221.612 39.8146 221.843 40.0127C222.086 40.2038 222.277 40.4115 222.416 40.6358L221.921 42.7486L221.649 42.6847C221.43 42.3076 221.147 41.9825 220.799 41.7092C220.462 41.4289 220.107 41.2452 219.735 41.1579C219.507 41.1046 219.298 41.1179 219.107 41.1978C218.927 41.2706 218.811 41.4161 218.76 41.6342C218.707 41.8614 218.765 42.0858 218.933 42.3074C219.102 42.529 219.342 42.7915 219.655 43.0947L220.496 43.9244C220.76 44.1876 220.972 44.4674 221.133 44.7639C221.305 45.0534 221.411 45.3755 221.453 45.7304C221.506 46.0782 221.481 46.4702 221.379 46.9064ZM228.644 41.304L228.185 43.2669L225.404 42.6155L224.931 44.6328C225.227 44.5968 225.527 44.5855 225.831 44.5991C226.136 44.6036 226.432 44.6298 226.718 44.6776C227.004 44.7254 227.267 44.7917 227.506 44.8765L227.062 46.7712L226.906 46.821C226.73 46.7127 226.516 46.6242 226.264 46.5555C226.021 46.4889 225.749 46.4397 225.45 46.408C225.151 46.3762 224.839 46.3752 224.516 46.4049L224.088 48.2314L226.869 48.8829L226.409 50.8457L221.475 49.6897L223.71 40.1481L228.644 41.304ZM226.813 50.9404L226.893 50.5996L230.943 41.8426L234.566 42.7056L234.308 52.3368L234.228 52.6775L231.979 52.1506L232.146 49.9035L229.911 49.3798L229.062 51.4673L226.813 50.9404ZM230.638 47.5658L232.301 47.9554L232.563 44.379L231.991 44.2449L230.638 47.5658ZM237.169 43.301L239.322 43.8056L237.087 53.3472L234.906 52.8363L237.169 43.301ZM240.713 44.1313C241.258 44.259 241.719 44.482 242.095 44.8001C242.473 45.1092 242.733 45.5105 242.876 46.0042C243.022 46.4888 243.018 47.0582 242.865 47.7125C242.707 48.385 242.44 48.9119 242.063 49.2933C241.686 49.6747 241.253 49.9279 240.763 50.0529C240.285 50.171 239.805 50.1736 239.324 50.0607L236.829 49.4764L238.218 43.5469L240.713 44.1313ZM238.364 47.8948L239.468 48.1535C239.659 48.1982 239.829 48.19 239.977 48.129C240.135 48.07 240.265 47.9662 240.367 47.8175C240.48 47.6619 240.561 47.4796 240.61 47.2706C240.659 47.0616 240.665 46.8713 240.629 46.6998C240.601 46.5304 240.529 46.3889 240.412 46.2751C240.306 46.1545 240.157 46.0718 239.967 46.0271L238.862 45.7684L238.364 47.8948ZM238.654 48.6818L240.726 49.1672L241.392 53.9964L241.313 54.3372L239.063 53.8102L238.654 48.6818ZM243.004 49.7008C243.202 48.8557 243.487 48.1508 243.859 47.586C244.231 47.0213 244.655 46.5838 245.13 46.2733C245.617 45.9559 246.128 45.7593 246.663 45.6834C247.201 45.5985 247.733 45.6177 248.26 45.7412C248.769 45.8604 249.175 46.0083 249.479 46.1849C249.792 46.3637 250.006 46.5337 250.121 46.695L249.639 48.7532L249.367 48.6894C249.278 48.5345 249.134 48.3713 248.935 48.2C248.747 48.0217 248.493 47.8953 248.175 47.8207C247.73 47.7164 247.313 47.7385 246.923 47.8869C246.536 48.0262 246.196 48.2916 245.903 48.6831C245.61 49.0746 245.389 49.5884 245.24 50.2245C245.091 50.8606 245.06 51.4191 245.149 51.9C245.238 52.3809 245.424 52.7743 245.707 53.0803C245.992 53.3771 246.357 53.5777 246.802 53.6821C247.12 53.7566 247.402 53.7603 247.648 53.6933C247.905 53.6193 248.107 53.5325 248.255 53.4329L248.528 53.4968L248.046 55.5551C247.873 55.6391 247.605 55.6963 247.244 55.7266C246.893 55.7499 246.463 55.702 245.954 55.5828C245.427 55.4593 244.941 55.2446 244.495 54.9389C244.051 54.624 243.68 54.2208 243.383 53.7295C243.097 53.2311 242.913 52.6464 242.831 51.9752C242.748 51.304 242.806 50.5459 243.004 49.7008ZM255.614 47.6222L257.795 48.1332L255.56 57.6748L253.379 57.1639L254.27 53.3609L252.061 52.8435L251.17 56.6466L248.99 56.1356L251.225 46.594L253.406 47.1049L252.515 50.908L254.723 51.4253L255.614 47.6222Z" fill="#FF6411"/>
</svg>
