<svg width="52" height="55" viewBox="0 0 52 55" fill="none" xmlns="http://www.w3.org/2000/svg">
<path d="M24.2943 1.60275C22.6494 5.94355 20.2506 16.0943 20.045 19.7005C19.9079 22.9728 20.045 23.7074 21.0045 23.9078C22.3068 24.1749 23.5404 20.8358 25.6651 11.6868C27.31 4.20723 27.4471 -5.72205e-06 26.0078 -5.72205e-06C25.3909 -5.72205e-06 24.637 0.734591 24.2943 1.60275Z" fill="#0A5235"/>
<path d="M39.4357 9.18791C33.4643 13.3801 26 21.829 26 24.4088C26 27.4401 27.9679 26.2146 36.3143 17.8303C41.0643 13.0576 45 8.67195 45 8.027C45 6.28563 42.9643 6.73709 39.4357 9.18791Z" fill="#0A5235"/>
<path d="M0 8.70514C0 11.629 9.88843 24.9193 12.0859 24.9193C13.5966 24.9193 13.2532 23.1251 10.9185 18.8722C8.78971 15.018 1.85408 6.9774 0.618027 6.9774C0.274679 6.9774 0 7.77482 0 8.70514Z" fill="#0A5235"/>
<path d="M30 30.3584C30 30.7867 30.4042 31.4291 30.8757 31.8574C32.2903 33.1423 50.2759 39.281 51.2864 38.8527C53.1725 38.0675 51.3537 36.4258 45.4259 33.4278C40.6432 31.0008 38.3529 30.287 34.648 30.0015C31.7514 29.7874 30 29.9301 30 30.3584Z" fill="#0A5235"/>
<path d="M24 41.1621C24 42.8611 35.1825 54.8224 36.7895 54.8224C38.8653 54.8224 38.2627 52.7156 35.0485 48.5699C32.4371 45.1718 26.0088 39.8708 24.5357 39.8708C24.2009 39.8708 24 40.4145 24 41.1621Z" fill="#0A5235"/>
</svg>
